<svg width="1625" height="2535" viewBox="0 0 1625 2535" fill="none" xmlns="http://www.w3.org/2000/svg">
<path d="M584 0.11452C585.254 3.87662 585.143 7.38752 585.133 11.3059C585.134 12.1246 585.135 12.9433 585.136 13.7869C585.136 15.5295 585.135 17.2721 585.13 19.0147C585.125 21.6151 585.13 24.2153 585.137 26.8157C585.15 58.0088 582.333 89.2176 573 119.115C572.792 119.785 572.585 120.454 572.371 121.145C566.785 138.972 559.52 155.293 548 170.115C547.303 171.043 546.605 171.971 545.887 172.927C545.264 173.649 544.641 174.371 544 175.115C543.34 175.115 542.68 175.115 542 175.115C542 175.775 542 176.435 542 177.115C540.602 178.525 540.602 178.525 538.625 180.177C536.303 182.139 534.015 184.1 531.805 186.189C524.483 193.101 516.372 198.58 508 204.115C507.016 204.777 506.033 205.44 505.02 206.122C494.065 213.339 481.845 219.897 468.965 222.798C465.002 224.558 463.562 227.203 461.562 230.865C460.991 231.862 460.991 231.862 460.407 232.88C457.232 238.492 454.37 244.253 451.547 250.048C450.301 252.518 449.01 254.805 447.5 257.115C443.789 262.803 440.984 269.025 438 275.115C437.023 277.074 436.044 279.032 435.062 280.99C434.662 281.791 434.261 282.593 433.848 283.419C433.568 283.979 433.288 284.538 433 285.115C433.646 284.52 434.292 283.926 434.957 283.314C457.12 263.819 484.376 252.246 513.875 252.552C515.151 252.557 515.151 252.557 516.453 252.562C531.159 252.644 544.75 254.332 559 258.115C560.334 258.433 561.668 258.747 563.004 259.056C566.708 259.963 570.357 260.993 574 262.115C574.832 262.37 575.664 262.626 576.521 262.89C588.84 266.735 600.944 271.108 612.938 275.865C614.123 276.324 615.309 276.784 616.53 277.257C617.622 277.7 618.715 278.143 619.84 278.599C620.813 278.988 621.786 279.377 622.789 279.778C625 281.115 625 281.115 625.823 283.272C625.881 283.88 625.94 284.488 626 285.115C617.473 292.663 608.642 299.367 599.161 305.67C596.896 307.184 594.648 308.722 592.402 310.263C584.174 315.88 576.041 320.89 567 325.115C565.744 325.75 564.49 326.391 563.238 327.036C530.163 344.06 498.288 351.077 462 340.115C460.775 339.755 459.551 339.395 458.289 339.025C444.078 334.601 427.722 327.837 417 317.115C412.421 326.724 407.956 336.364 403.738 346.138C402.415 349.197 401.031 352.224 399.637 355.251C396.737 361.61 394.113 368.071 391.5 374.552C390.573 376.843 389.646 379.133 388.719 381.423C388.04 383.1 388.04 383.1 387.348 384.81C386.05 387.992 384.726 391.161 383.395 394.329C381.197 399.588 379.149 404.888 377.188 410.24C376.876 411.075 376.565 411.91 376.244 412.771C375.951 413.567 375.658 414.364 375.355 415.185C375.094 415.894 374.833 416.603 374.563 417.334C373.899 419.121 373.899 419.121 374 421.115C374.86 420.485 375.72 419.856 376.605 419.208C399.765 402.384 421.667 390.093 450.776 390.518C453.368 390.552 455.955 390.538 458.547 390.519C470.752 390.53 482.142 392.314 494 395.115C494.731 395.284 495.461 395.453 496.214 395.627C500.836 396.7 505.423 397.865 510 399.115C510.752 399.318 511.504 399.521 512.278 399.73C525.124 403.25 537.289 407.909 549.547 413.091C554.651 415.221 559.823 417.171 565 419.115C564.69 422.246 564.307 423.786 562.129 426.115C559.103 428.472 556.074 430.82 553 433.115C552.358 433.6 551.716 434.085 551.055 434.585C531.506 449.309 510.543 462.475 488 472.115C486.931 472.597 485.863 473.079 484.762 473.575C457.879 485.151 428.998 486.751 401 478.115C399.75 477.729 399.75 477.729 398.474 477.336C384.069 472.741 371.192 466.024 359 457.115C358.732 458.373 358.464 459.631 358.188 460.927C356.679 467.683 355.058 474.401 352.59 480.876C350.896 485.323 349.428 489.826 348 494.365C347.737 495.196 347.475 496.027 347.204 496.883C345.501 502.337 343.983 507.798 342.738 513.376C342.129 515.635 341.415 517.689 340.566 519.861C338.856 524.32 337.727 528.848 336.625 533.49C334.996 540.195 333.267 546.854 331.375 553.49C327.642 565.158 327.642 565.158 326 577.115C326.615 576.248 326.615 576.248 327.242 575.365C327.781 574.622 328.32 573.88 328.875 573.115C329.409 572.372 329.942 571.63 330.492 570.865C330.99 570.287 331.487 569.71 332 569.115C332.66 569.115 333.32 569.115 334 569.115C334.268 568.523 334.535 567.931 334.811 567.322C346.302 545.983 374.607 532.595 396.587 525.806C401.88 524.289 407.236 523.21 412.689 522.447C414.423 522.198 416.151 521.912 417.875 521.608C429.62 519.73 441.333 519.777 453.202 519.799C456.767 519.802 460.331 519.779 463.896 519.753C483.951 519.699 506.714 519.764 526 526.115C526.66 527.105 527.32 528.095 528 529.115C526.717 531.12 525.424 533.119 524.125 535.115C523.76 535.687 523.395 536.259 523.02 536.849C522.065 538.306 521.037 539.715 520 541.115C519.34 541.115 518.68 541.115 518 541.115C517.756 541.84 517.513 542.566 517.262 543.314C515.845 546.459 514.169 548.417 511.812 550.927C510.6 552.236 510.6 552.236 509.363 553.572C508.583 554.411 507.804 555.25 507 556.115C505.827 557.442 504.66 558.775 503.5 560.115C502.334 561.448 501.167 562.781 500 564.115C499.371 564.838 498.742 565.561 498.094 566.306C487.902 577.847 477.115 588.608 465 598.115C463.25 599.593 461.5 601.072 459.75 602.552C448.398 611.795 436.252 618.965 423 625.115C421.973 625.61 420.945 626.105 419.887 626.615C391.958 639.313 351.337 636.707 322.949 626.743C319.932 625.599 316.956 624.409 314 623.115C314.026 624.146 314.052 625.177 314.078 626.24C314.007 629.789 313.574 632.679 312.75 636.115C309.334 651.327 306.924 666.736 304.951 682.197C304.84 683.061 304.728 683.926 304.613 684.818C304.518 685.577 304.423 686.337 304.325 687.119C304 689.115 304 689.115 303 692.115C302.727 694.118 302.493 696.127 302.281 698.138C302.154 699.324 302.026 700.51 301.895 701.732C301.764 702.972 301.634 704.212 301.5 705.49C301.242 707.935 300.981 710.38 300.719 712.825C300.548 714.454 300.548 714.454 300.373 716.116C300.036 718.822 299.542 721.444 299 724.115C298.935 725.884 298.914 727.656 298.938 729.427C298.951 730.752 298.951 730.752 298.965 732.103C298.982 733.099 298.982 733.099 299 734.115C299.692 733.007 299.692 733.007 300.398 731.876C304.68 725.218 309.191 719.415 314.625 713.642C316.68 711.455 318.63 709.222 320.562 706.927C346.635 677.241 386.439 669.371 424.094 666.556C432.647 666.013 441.182 665.917 449.75 665.927C450.546 665.927 451.341 665.927 452.161 665.927C463.032 665.938 473.843 666.212 484.688 666.99C485.814 667.068 486.941 667.146 488.103 667.227C495.741 667.855 495.741 667.855 498 670.115C497.624 673.159 496.411 675.318 494.734 677.845C494.263 678.557 493.792 679.269 493.306 680.003C492.792 680.762 492.279 681.52 491.75 682.302C491.218 683.094 490.686 683.885 490.137 684.701C484.429 693.099 478.3 701.153 472 709.115C471.185 710.144 470.371 711.174 469.531 712.236C464.967 717.9 460.167 723.308 455.234 728.654C453.414 730.658 451.688 732.687 450 734.802C449.34 735.565 448.68 736.328 448 737.115C447.34 737.115 446.68 737.115 446 737.115C446 737.775 446 738.435 446 739.115C445.34 739.115 444.68 739.115 444 739.115C443.764 739.683 443.528 740.251 443.285 740.837C433.049 758.976 403.425 774.929 384.363 781.337C363.976 786.94 342.926 788.073 322 785.802C320.209 785.625 320.209 785.625 318.383 785.445C309.147 784.459 300.597 782.665 292 779.115C292.023 780.164 292.046 781.213 292.07 782.294C292.262 795.686 291.52 808.989 290.667 822.346C290.439 825.935 290.219 829.525 290 833.115C289.953 833.877 289.905 834.64 289.857 835.425C289.017 849.247 288.878 863.02 288.938 876.865C288.943 878.941 288.947 881.018 288.951 883.095C288.962 888.102 288.979 893.108 289 898.115C289.318 897.328 289.636 896.542 289.964 895.731C306.774 854.692 339.197 830.383 379.198 813.606C396.77 806.372 414.672 801.077 433 796.115C433.791 795.899 434.583 795.683 435.398 795.461C443.095 793.38 450.835 791.678 458.688 790.302C459.443 790.166 460.198 790.029 460.976 789.889C464.919 789.238 468.139 788.995 472 790.115C471.738 791.616 471.465 793.116 471.188 794.615C470.961 795.867 470.961 795.867 470.73 797.146C469.987 800.169 468.953 803 467.832 805.901C466.639 809.076 465.603 812.298 464.553 815.522C459.666 830.515 453.869 844.923 447 859.115C446.433 860.29 445.866 861.466 445.281 862.677C430.612 892.549 411.569 922.836 383 941.115C382.111 941.688 381.221 942.262 380.305 942.853C356.766 957.316 327.42 965.428 299.875 965.177C298.919 965.172 297.962 965.168 296.977 965.163C294.651 965.152 292.326 965.135 290 965.115C290.158 966.831 290.158 966.831 290.32 968.582C290.727 973.008 291.133 977.434 291.538 981.861C291.721 983.866 291.905 985.871 292.089 987.876C293.04 998.246 293.981 1008.62 294.793 1019C296.734 1049.3 296.734 1049.3 302 1079.11C302.22 1081.36 302.405 1083.61 302.562 1085.86C302.688 1087.62 302.688 1087.62 302.816 1089.41C302.877 1090.3 302.938 1091.2 303 1092.11C305.223 1088.78 305.94 1085.97 307 1082.11C320.265 1042.95 344.607 1017.79 380 997.115C380.662 996.726 381.324 996.338 382.005 995.939C395.978 987.863 411.045 982.079 426 976.115C426.819 975.783 427.638 975.451 428.482 975.11C464.922 960.388 464.922 960.388 482 961.115C482.159 966.617 481.723 971.511 480.375 976.865C480.197 977.592 480.019 978.32 479.835 979.069C476.519 992.303 472.369 1005.28 467.938 1018.18C467.621 1019.1 467.305 1020.03 466.979 1020.99C464.999 1026.66 462.718 1032.11 460.185 1037.55C459.156 1039.78 458.176 1042.01 457.227 1044.27C454.115 1051.64 450.768 1058.61 446.602 1065.47C445.229 1067.74 443.978 1070.02 442.75 1072.36C431.216 1093.16 414.622 1112.09 394 1124.11C392.912 1124.75 391.824 1125.39 390.703 1126.05C380.291 1131.96 369.307 1136.23 358 1140.11C357.136 1140.41 356.271 1140.71 355.381 1141.01C342.01 1145.49 328.175 1148.29 314 1148.11C313.34 1147.78 312.68 1147.45 312 1147.11C312.307 1147.66 312.614 1148.2 312.93 1148.76C314.147 1151.44 314.624 1153.85 315.113 1156.74C315.307 1157.85 315.5 1158.96 315.7 1160.1C315.902 1161.28 316.104 1162.46 316.312 1163.68C317.932 1172.8 319.79 1181.74 322.263 1190.67C323.888 1196.56 325.111 1202.44 326.258 1208.44C327.456 1214.37 328.973 1220.21 330.479 1226.06C331.015 1228.17 331.529 1230.28 332.039 1232.4C332.211 1233.11 332.382 1233.81 332.559 1234.54C333.032 1236.49 333.503 1238.44 333.973 1240.4C334.891 1243.72 335.999 1246.83 337.24 1250.03C338.567 1253.66 339.554 1257.39 340.562 1261.11C340.875 1262.25 340.875 1262.25 341.193 1263.4C342.533 1268.29 343.787 1273.19 345 1278.11C346.472 1274 347.412 1270.05 348.125 1265.74C353.393 1237.52 365.495 1214.8 385 1194.11C385.857 1193.2 385.857 1193.2 386.73 1192.26C408.442 1169.72 437.844 1153.95 466 1141.11C467.227 1140.55 467.227 1140.55 468.478 1139.97C476.75 1136.17 485.099 1132.59 493.562 1129.24C494.276 1128.95 494.99 1128.67 495.726 1128.37C500.666 1126.45 505.726 1124.8 511 1124.11C511.33 1124.44 511.66 1124.77 512 1125.11C511.522 1139.04 509.455 1153.88 505.738 1167.3C504.891 1170.53 504.292 1173.77 503.688 1177.05C500.593 1192.8 495.618 1208.1 490 1223.11C489.551 1224.34 489.103 1225.57 488.641 1226.83C472.797 1268.49 445.652 1297.6 405.035 1316.01C400.745 1317.86 396.392 1319.52 392 1321.11C390.765 1321.57 389.53 1322.02 388.258 1322.49C379.591 1325.52 371.027 1327.54 362 1329.11C363.099 1332.47 364.205 1335.82 365.312 1339.18C365.621 1340.12 365.93 1341.06 366.248 1342.03C367.953 1347.19 369.815 1352.15 372 1357.11C372.973 1359.65 373.933 1362.19 374.875 1364.74C375.402 1366.15 375.929 1367.57 376.457 1368.98C376.717 1369.67 376.977 1370.37 377.245 1371.09C381.098 1381.43 381.098 1381.43 385.5 1391.55C387.419 1395.67 389.006 1399.82 390.5 1404.11C392.324 1409.35 394.378 1414.36 396.738 1419.37C398.597 1423.41 400.236 1427.55 401.887 1431.68C402.881 1434.23 402.881 1434.23 405 1436.11C405.026 1435.38 405.052 1434.66 405.078 1433.9C406.511 1407.52 416.064 1383.96 432 1363.11C432.688 1362.21 433.377 1361.31 434.086 1360.38C435.225 1358.91 436.371 1357.44 437.527 1355.98C438.582 1354.64 439.591 1353.27 440.566 1351.87C441.276 1351 441.276 1351 442 1350.11C442.66 1350.11 443.32 1350.11 444 1350.11C444.218 1349.57 444.436 1349.03 444.66 1348.47C446.453 1345.32 448.871 1342.95 451.438 1340.43C451.97 1339.9 452.502 1339.37 453.05 1338.83C457.238 1334.73 461.632 1330.97 466.234 1327.34C468.473 1325.54 470.616 1323.69 472.762 1321.78C477.019 1318.03 481.485 1314.64 486.062 1311.3C486.896 1310.69 487.73 1310.08 488.589 1309.45C505.805 1296.94 523.891 1285.91 542.625 1275.8C543.317 1275.42 544.009 1275.04 544.722 1274.65C548.162 1272.83 550.02 1272.11 554 1272.11C555.05 1275.26 555.129 1277.49 555.133 1280.79C555.135 1281.94 555.137 1283.08 555.14 1284.26C555.135 1285.49 555.13 1286.72 555.125 1287.99C555.12 1289.26 555.115 1290.53 555.11 1291.84C554.874 1329.42 550.339 1366.21 539 1402.11C538.777 1402.83 538.554 1403.54 538.324 1404.28C532.231 1423.45 522.267 1441.22 508.285 1455.69C505.896 1458.09 505.896 1458.09 504 1461.11C503.34 1461.11 502.68 1461.11 502 1461.11C502 1461.77 502 1462.43 502 1463.11C499.996 1464.87 497.987 1466.5 495.875 1468.11C495.244 1468.6 494.613 1469.09 493.963 1469.59C480.372 1480.03 466.544 1489.61 451.062 1497.05C450.257 1497.44 449.452 1497.83 448.622 1498.23C444.41 1500.21 440.687 1501.64 436 1502.11C441.166 1511.98 446.444 1521.77 451.938 1531.46C453.726 1534.62 455.465 1537.8 457.188 1540.99C459.507 1545.27 461.979 1549.44 464.508 1553.59C466.034 1556.17 467.461 1558.79 468.875 1561.43C471.965 1567.14 475.355 1572.65 478.791 1578.16C481.214 1582.07 483.604 1586 486 1589.93C486.958 1591.5 487.917 1593.07 488.875 1594.63C489.583 1595.79 490.292 1596.95 491 1598.11C490.992 1596.55 490.992 1596.55 490.984 1594.95C490.966 1591.04 490.955 1587.14 490.945 1583.23C490.94 1581.54 490.933 1579.86 490.925 1578.17C490.912 1575.74 490.907 1573.3 490.902 1570.87C490.897 1570.13 490.892 1569.39 490.887 1568.62C490.884 1542.59 502.709 1517.59 516.922 1496.3C518.373 1494.07 519.699 1491.9 520.98 1489.59C522.902 1486.18 525.146 1483.14 527.562 1480.05C527.992 1479.5 528.422 1478.95 528.865 1478.38C529.775 1477.22 530.688 1476.06 531.602 1474.9C533.004 1473.11 534.394 1471.31 535.781 1469.51C540.676 1463.19 545.678 1457.07 551.125 1451.2C553.04 1449.15 553.04 1449.15 554.625 1446.84C555.306 1445.99 555.306 1445.99 556 1445.11C556.66 1445.11 557.32 1445.11 558 1445.11C558.228 1444.56 558.456 1444.01 558.691 1443.44C560.379 1440.44 562.508 1438.37 564.945 1435.94C565.434 1435.45 565.923 1434.96 566.426 1434.46C567.461 1433.43 568.498 1432.4 569.538 1431.37C571.104 1429.82 572.662 1428.27 574.219 1426.71C588.249 1412.73 588.249 1412.73 595 1408.11C597.156 1408.21 597.156 1408.21 599 1409.11C602.518 1417.32 604.082 1426.41 606 1435.11C606.166 1435.86 606.333 1436.61 606.504 1437.38C611.565 1460.33 614.668 1483.6 615 1507.11C615.015 1508.01 615.03 1508.91 615.046 1509.83C615.136 1515.93 615.112 1522.02 615 1528.11C614.981 1529.3 614.981 1529.3 614.962 1530.52C614.768 1540.09 613.806 1549.37 612.125 1558.8C611.964 1559.71 611.802 1560.62 611.636 1561.56C610.724 1566.33 609.538 1570.76 607.732 1575.27C607.04 1577.01 606.446 1578.79 605.859 1580.57C603.205 1588.6 599.769 1595.16 595 1602.11C594.321 1603.27 594.321 1603.27 593.629 1604.45C586.513 1616.08 577.446 1626.36 568 1636.11C567.292 1636.86 566.585 1637.61 565.855 1638.38C558.619 1645.87 550.452 1652.22 541.938 1658.18C541.377 1658.57 540.817 1658.97 540.24 1659.37C536.247 1662.11 536.247 1662.11 534 1662.11C534.66 1663.76 535.32 1665.41 536 1667.11C536.66 1667.11 537.32 1667.11 538 1667.11C539.154 1668.44 539.154 1668.44 540.434 1670.31C541.151 1671.34 541.151 1671.34 541.883 1672.4C542.396 1673.15 542.909 1673.9 543.438 1674.68C544.528 1676.25 545.619 1677.82 546.711 1679.38C547.262 1680.18 547.814 1680.97 548.382 1681.79C554.52 1690.6 560.871 1699.14 567.88 1707.28C571.152 1711.08 574.293 1714.97 577.375 1718.93C586.963 1731.23 596.869 1743.26 607 1755.11C606.037 1749.89 604.937 1744.78 603.438 1739.68C602.092 1734.92 601.512 1730.35 601.211 1725.43C601.075 1722.96 601.075 1722.96 600 1720.11C599.906 1718.3 599.869 1716.49 599.867 1714.68C599.866 1713.62 599.865 1712.56 599.863 1711.47C599.867 1710.36 599.871 1709.25 599.875 1708.11C599.871 1707.01 599.867 1705.9 599.863 1704.76C599.865 1703.7 599.866 1702.64 599.867 1701.55C599.869 1700.1 599.869 1700.1 599.871 1698.61C600 1696.11 600 1696.11 601 1693.11C601.103 1691.59 601.183 1690.07 601.25 1688.55C601.961 1680.13 604.582 1672.18 607 1664.11C607.422 1662.67 607.844 1661.23 608.266 1659.79C610.604 1651.92 613.409 1644.5 617 1637.11C617.634 1635.74 618.265 1634.37 618.895 1632.99C623.056 1623.95 627.504 1615.11 632.25 1606.36C632.993 1604.99 632.993 1604.99 633.75 1603.59C636.549 1598.49 639.57 1593.8 643 1589.11C643.824 1587.7 644.622 1586.26 645.375 1584.8C648.2 1579.61 651.531 1574.89 655 1570.11C655.421 1569.53 655.842 1568.95 656.276 1568.35C664.241 1557.38 672.509 1546.69 681 1536.11C682.334 1534.45 683.667 1532.78 685 1531.11C687.344 1531.25 687.344 1531.25 690 1532.11C691.406 1534.67 691.406 1534.67 692.5 1537.99C693.956 1542.17 695.437 1546.19 697.375 1550.18C700.218 1556.27 702.344 1562.59 704.501 1568.95C705.746 1572.6 707.019 1576.16 708.562 1579.7C710.193 1583.57 711.304 1587.43 712.375 1591.49C712.807 1593.09 713.241 1594.69 713.676 1596.29C713.894 1597.1 714.113 1597.9 714.338 1598.73C715.158 1601.68 716.041 1604.61 716.931 1607.53C719.79 1616.96 722.024 1626.47 724 1636.11C724.307 1637.61 724.307 1637.61 724.621 1639.13C727.389 1653.46 728.326 1667.47 728.261 1682.03C728.25 1684.87 728.261 1687.72 728.273 1690.56C728.305 1727.28 711.994 1759.39 690 1788.11C689.273 1789.07 688.546 1790.02 687.797 1791.01C683.713 1796.26 683.713 1796.26 682 1798.11C681.34 1798.11 680.68 1798.11 680 1798.11C679.689 1798.92 679.689 1798.92 679.371 1799.74C677.455 1803.06 674.795 1805.53 672.062 1808.18C671.524 1808.71 670.986 1809.24 670.432 1809.78C668.958 1811.23 667.479 1812.67 666 1814.11C664.999 1815.11 663.998 1816.11 663 1817.11C663.99 1817.77 664.98 1818.43 666 1819.11C666 1819.77 666 1820.43 666 1821.11C666.66 1821.11 667.32 1821.11 668 1821.11C668 1821.77 668 1822.43 668 1823.11C668.66 1823.11 669.32 1823.11 670 1823.11C670 1823.77 670 1824.43 670 1825.11C670.66 1825.11 671.32 1825.11 672 1825.11C672 1825.77 672 1826.43 672 1827.11C672.66 1827.11 673.32 1827.11 674 1827.11C675.27 1828.41 675.27 1828.41 676.812 1830.3C680.189 1834.27 683.756 1837.99 687.438 1841.68C687.963 1842.21 688.488 1842.74 689.029 1843.28C692.531 1846.77 696.176 1850.05 699.914 1853.28C703.545 1856.47 707.05 1859.8 710.562 1863.11C711.637 1864.12 711.637 1864.12 712.732 1865.15C716.695 1868.89 720.596 1872.67 724.417 1876.55C727.956 1880.04 731.783 1883.22 735.561 1886.45C737.333 1887.96 739.104 1889.48 740.875 1890.99C741.778 1891.76 741.778 1891.76 742.698 1892.55C747.246 1896.44 751.701 1900.42 756.109 1904.47C757.908 1906.17 757.908 1906.17 760 1907.11C760 1907.77 760 1908.43 760 1909.11C760.66 1909.11 761.32 1909.11 762 1909.11C761.42 1907.64 761.42 1907.64 760.828 1906.14C757.252 1896.93 754.188 1887.77 752 1878.11C751.822 1877.34 751.644 1876.57 751.46 1875.77C749.766 1867.65 749.602 1859.57 749.625 1851.3C749.626 1850.21 749.626 1850.21 749.627 1849.1C749.692 1829.93 753.391 1812.44 759.308 1794.24C759.919 1792.36 760.51 1790.48 761.098 1788.59C762.903 1782.91 765.058 1777.53 767.594 1772.14C768.929 1769.27 770.19 1766.37 771.438 1763.46C781.08 1741.04 792.641 1719.08 806.65 1699.08C808.249 1696.75 809.788 1694.39 811.328 1692.02C812.489 1690.26 813.651 1688.5 814.812 1686.74C815.352 1685.9 815.892 1685.06 816.448 1684.19C816.966 1683.42 817.485 1682.64 818.02 1681.84C818.474 1681.15 818.929 1680.45 819.398 1679.73C821.467 1677.64 823.128 1677.45 826 1677.11C831.148 1686.1 835.533 1695.4 839.908 1704.78C840.907 1706.92 841.913 1709.05 842.922 1711.18C849.875 1725.9 855.774 1740.71 861 1756.11C861.471 1757.49 861.943 1758.86 862.414 1760.24C866.264 1771.59 869.629 1782.95 872.125 1794.68C872.284 1795.42 872.442 1796.16 872.606 1796.93C874.938 1808.24 876.346 1819.38 876.688 1830.93C876.725 1832.16 876.763 1833.38 876.802 1834.65C877.266 1852.38 876.293 1869.72 869 1886.11C868.301 1888.19 867.613 1890.28 866.938 1892.36C860.167 1911.46 848.825 1929.45 836.262 1945.26C833.837 1948.32 831.53 1951.45 829.254 1954.63C828 1956.11 828 1956.11 825 1958.11C826.108 1961.44 826.652 1961.86 829.402 1963.79C830.476 1964.56 830.476 1964.56 831.572 1965.34C832.353 1965.88 833.133 1966.43 833.938 1966.99C835.593 1968.16 837.248 1969.34 838.902 1970.51C840.176 1971.41 840.176 1971.41 841.476 1972.33C845.338 1975.06 849.168 1977.84 853 1980.61C854.506 1981.7 856.013 1982.79 857.52 1983.87C860.465 1986 863.399 1988.14 866.324 1990.29C876.447 1997.72 886.829 2004.67 897.379 2011.47C902.435 2014.74 907.443 2018.07 912.438 2021.43C925.363 2030.09 938.631 2038.16 952 2046.11C951.648 2045.63 951.296 2045.14 950.934 2044.64C946.195 2037.83 942.566 2030.58 939 2023.11C938.704 2022.5 938.409 2021.89 938.104 2021.26C926.761 1997.74 919.619 1975.43 919.739 1949.09C919.75 1946.32 919.739 1943.55 919.727 1940.78C919.716 1927.07 920.821 1914.13 924.102 1900.78C924.776 1898.03 925.413 1895.28 926.023 1892.51C929.708 1876.07 934.199 1859.57 941 1844.11C941.809 1841.87 942.6 1839.62 943.375 1837.36C945.256 1832.04 947.356 1826.92 949.758 1821.81C951.05 1819.01 952.217 1816.17 953.375 1813.3C956.229 1806.39 959.611 1799.78 963 1793.11C963.557 1791.98 964.114 1790.85 964.688 1789.68C968.589 1781.73 972.795 1774.01 977.18 1766.32C978.154 1764.6 979.118 1762.88 980 1761.11C983.356 1761.39 984.679 1761.76 986.982 1764.29C987.614 1765.25 988.247 1766.21 988.898 1767.2C989.978 1768.83 989.978 1768.83 991.079 1770.48C991.845 1771.67 992.61 1772.86 993.375 1774.05C994.173 1775.27 994.971 1776.49 995.769 1777.71C1003.69 1789.89 1010.96 1802.42 1018 1815.11C1018.41 1815.86 1018.83 1816.6 1019.26 1817.36C1039.71 1854.11 1055.95 1894.16 1061 1936.11C1061.09 1936.85 1061.19 1937.59 1061.29 1938.35C1064.87 1967.83 1057.77 1997.16 1046 2024.11C1045.55 2025.23 1045.11 2026.35 1044.64 2027.5C1036.97 2046.36 1026.15 2064.57 1013 2080.11C1015.67 2082.78 1018.83 2084.11 1022.19 2085.74C1027.54 2088.37 1032.83 2091.07 1038.06 2093.93C1050.53 2100.66 1063.43 2106.54 1076.28 2112.5C1076.9 2112.78 1077.51 2113.07 1078.15 2113.36C1081.15 2114.75 1084.15 2116.14 1087.16 2117.52C1092.5 2119.99 1097.79 2122.5 1103.02 2125.19C1108.06 2127.73 1113.17 2129.8 1118.46 2131.77C1122.43 2133.28 1126.36 2134.87 1130.29 2136.49C1131 2136.78 1131.72 2137.08 1132.45 2137.38C1134.66 2138.29 1136.86 2139.2 1139.06 2140.11C1140.54 2140.72 1142.02 2141.33 1143.49 2141.94C1144.95 2142.54 1146.4 2143.14 1147.85 2143.74C1148.91 2144.18 1148.91 2144.18 1149.99 2144.62C1153.09 2145.9 1156.18 2147.19 1159.27 2148.5C1166.47 2151.54 1173.76 2154.29 1181.12 2156.93C1182.81 2157.54 1182.81 2157.54 1184.52 2158.16C1185.59 2158.54 1186.66 2158.93 1187.76 2159.32C1188.72 2159.67 1189.68 2160.01 1190.67 2160.37C1192.91 2161.22 1192.91 2161.22 1195 2161.11C1194.44 2160.54 1193.88 2159.97 1193.3 2159.38C1177.17 2142.28 1162.94 2121.93 1154 2100.11C1153.45 2098.81 1153.45 2098.81 1152.89 2097.47C1142.11 2069.91 1142.25 2039.72 1143.44 2010.61C1143.5 2009.14 1143.5 2009.14 1143.56 2007.63C1143.6 2006.71 1143.64 2005.78 1143.68 2004.83C1143.72 2004.02 1143.76 2003.2 1143.79 2002.36C1143.99 2000.18 1144.45 1998.23 1145 1996.11C1145.15 1994.03 1145.27 1991.95 1145.38 1989.86C1145.86 1982.48 1147.15 1975.38 1148.61 1968.15C1149.11 1965.53 1149.54 1962.9 1149.98 1960.26C1153.38 1939.79 1158.68 1919.86 1165 1900.11C1165.67 1898.01 1166.33 1895.9 1167 1893.79C1168.66 1888.56 1170.32 1883.34 1172 1878.11C1176.69 1877.88 1176.69 1877.88 1179.46 1880.01C1180.23 1880.83 1181.01 1881.65 1181.81 1882.49C1182.6 1883.3 1183.39 1884.11 1184.21 1884.95C1186 1887.11 1186 1887.11 1186 1889.11C1186.66 1889.11 1187.32 1889.11 1188 1889.11C1189.48 1890.62 1189.48 1890.62 1191.19 1892.68C1193.55 1895.46 1195.95 1898.12 1198.56 1900.68C1201.89 1903.96 1205.26 1907.31 1208 1911.11C1208 1911.77 1208 1912.43 1208 1913.11C1208.66 1913.11 1209.32 1913.11 1210 1913.11C1211.95 1915.23 1211.95 1915.23 1214.12 1917.99C1214.85 1918.89 1215.57 1919.8 1216.32 1920.73C1218 1923.11 1218 1923.11 1218 1925.11C1218.66 1925.11 1219.32 1925.11 1220 1925.11C1221.27 1926.69 1222.47 1928.33 1223.62 1929.99C1226.34 1933.82 1229.1 1937.54 1232.06 1941.18C1239.28 1950.11 1245.51 1959.76 1251.83 1969.34C1252.86 1970.91 1253.91 1972.47 1254.95 1974.03C1259.21 1980.52 1262.69 1987.25 1266.07 1994.23C1267.03 1996.17 1268.01 1998.09 1269.01 2000C1273.14 2008 1276.66 2016.01 1279.68 2024.49C1280.94 2028.09 1280.94 2028.09 1282.5 2031.38C1284.58 2036.14 1285.53 2041.18 1286.62 2046.24C1286.84 2047.22 1287.06 2048.19 1287.28 2049.2C1287.86 2051.83 1288.44 2054.47 1289 2057.11C1289.27 2058.28 1289.27 2058.28 1289.55 2059.48C1290.6 2065.65 1290.29 2072.05 1290.31 2078.3C1290.32 2079.08 1290.32 2079.86 1290.32 2080.67C1290.33 2095.11 1288.9 2108.95 1286 2123.11C1285.84 2123.93 1285.68 2124.74 1285.51 2125.57C1281.27 2146.69 1273.66 2167.41 1263 2186.11C1264.5 2186.3 1264.5 2186.3 1266.02 2186.49C1269.99 2187.06 1273.8 2188.05 1277.64 2189.15C1278.36 2189.36 1279.08 2189.56 1279.82 2189.76C1281.36 2190.2 1282.89 2190.63 1284.43 2191.06C1287.67 2191.98 1290.91 2192.89 1294.16 2193.8C1296.6 2194.48 1299.04 2195.16 1301.48 2195.85C1338.93 2206.34 1376.74 2215.11 1415 2222.11C1414.01 2221.45 1413.01 2220.78 1411.99 2220.09C1398.31 2210.84 1384.45 2201.11 1373 2189.11C1372.35 2188.45 1371.71 2187.79 1371.04 2187.11C1364.4 2180.05 1359.12 2172.3 1354 2164.11C1353.52 2163.36 1353.04 2162.6 1352.54 2161.82C1348.73 2155.66 1345.7 2149.34 1342.88 2142.68C1342.46 2141.72 1342.04 2140.76 1341.61 2139.77C1320.55 2090.73 1315.06 2035.52 1314.88 1982.61C1314.87 1981.69 1314.87 1980.76 1314.86 1979.81C1314.87 1974.17 1315.28 1968.71 1316 1963.11C1320.01 1962.85 1322.32 1963.5 1325.81 1965.46C1326.71 1965.96 1327.62 1966.46 1328.55 1966.97C1329.5 1967.51 1330.46 1968.06 1331.44 1968.61C1332.43 1969.17 1333.42 1969.72 1334.44 1970.29C1336.41 1971.4 1338.39 1972.5 1340.35 1973.62C1342.49 1974.83 1344.63 1976.02 1346.79 1977.2C1368.52 1989.3 1389.86 2003.21 1409 2019.11C1410.65 2020.41 1412.29 2021.7 1413.94 2022.99C1418.52 2026.65 1422.86 2030.54 1427.16 2034.52C1429.37 2036.54 1431.59 2038.5 1433.85 2040.45C1445.45 2050.58 1455.99 2061.62 1465 2074.11C1465.53 2074.84 1466.05 2075.57 1466.6 2076.31C1490.73 2109.79 1499.19 2147.37 1499.19 2188.39C1499.19 2190.48 1499.21 2192.57 1499.22 2194.66C1499.28 2208.23 1498.32 2222.16 1494 2235.11C1495.19 2235.22 1496.38 2235.33 1497.6 2235.45C1506.64 2236.3 1515.64 2237.31 1524.62 2238.61C1534.17 2239.99 1543.72 2240.81 1553.35 2241.47C1561.48 2242.03 1561.48 2242.03 1565.12 2242.64C1569.4 2243.35 1573.68 2243.44 1578 2243.61C1583.43 2243.83 1588.63 2244.21 1594 2245.11C1597.08 2245.33 1600.16 2245.43 1603.25 2245.55C1621.25 2246.37 1621.25 2246.37 1624 2249.11C1624.04 2250.78 1624.04 2252.45 1624 2254.11C1621.08 2255.57 1618.07 2255.47 1614.86 2255.65C1614.11 2255.69 1613.37 2255.74 1612.61 2255.78C1610.14 2255.92 1607.66 2256.05 1605.19 2256.18C1604.34 2256.22 1603.49 2256.27 1602.61 2256.31C1588.03 2257.06 1573.47 2257.31 1558.88 2257.3C1557.92 2257.3 1556.97 2257.3 1555.99 2257.3C1546.69 2257.3 1537.47 2257.19 1528.2 2256.36C1524.43 2256.07 1520.68 2255.94 1516.91 2255.83C1516.22 2255.81 1515.53 2255.8 1514.82 2255.78C1511.99 2255.7 1509.16 2255.63 1506.33 2255.56C1504.23 2255.51 1502.13 2255.45 1500.03 2255.4C1498.18 2255.35 1498.18 2255.35 1496.3 2255.3C1493.42 2255.14 1490.8 2254.77 1488 2254.11C1488.33 2254.77 1488.66 2255.43 1489 2256.11C1491.22 2284.78 1484.48 2312.32 1475.94 2339.43C1475.62 2340.43 1475.31 2341.44 1474.98 2342.48C1473.07 2348.37 1470.81 2353.95 1468.18 2359.55C1466.82 2362.5 1465.62 2365.49 1464.43 2368.52C1461.27 2376.52 1457.51 2383.78 1453 2391.11C1452.18 2392.61 1451.37 2394.11 1450.56 2395.61C1447.41 2401.32 1443.96 2406.94 1440 2412.11C1439.34 2412.11 1438.68 2412.11 1438 2412.11C1437.79 2412.8 1437.59 2413.48 1437.38 2414.18C1435.57 2418.03 1433.1 2421.19 1430 2424.11C1429.34 2424.11 1428.68 2424.11 1428 2424.11C1428 2424.77 1428 2425.43 1428 2426.11C1427.34 2426.11 1426.68 2426.11 1426 2426.11C1426 2426.77 1426 2427.43 1426 2428.11C1425.34 2428.11 1424.68 2428.11 1424 2428.11C1424 2428.77 1424 2429.43 1424 2430.11C1423.34 2430.11 1422.68 2430.11 1422 2430.11C1422 2430.77 1422 2431.43 1422 2432.11C1420.67 2433.49 1420.67 2433.49 1418.75 2435.11C1418.01 2435.74 1417.27 2436.37 1416.51 2437.01C1415.68 2437.71 1414.85 2438.4 1414 2439.11C1412.73 2440.22 1412.73 2440.22 1411.43 2441.34C1398.23 2452.63 1384.09 2462.52 1369 2471.11C1367.69 2471.87 1366.38 2472.63 1365.07 2473.38C1350.77 2481.59 1336.05 2488.65 1320.96 2495.25C1318.44 2496.36 1315.94 2497.52 1313.44 2498.68C1300.37 2504.62 1287.07 2509.64 1273.44 2514.11C1272.66 2514.37 1271.89 2514.63 1271.09 2514.89C1257.81 2519.28 1244.48 2523.39 1231 2527.11C1230.27 2527.32 1229.53 2527.53 1228.77 2527.74C1204.9 2534.41 1204.9 2534.41 1197 2534.11C1195.67 2530.11 1196.69 2527.04 1197.62 2523.05C1197.81 2522.25 1197.99 2521.45 1198.18 2520.63C1200.01 2512.82 1202.15 2505.1 1204.35 2497.39C1205.23 2494.3 1206.08 2491.2 1206.93 2488.11C1212.9 2466.38 1212.9 2466.38 1215.56 2460.43C1216.73 2457.73 1217.58 2455.24 1218.38 2452.43C1219.79 2447.55 1221.69 2442.97 1223.69 2438.31C1225.04 2435.01 1226.22 2431.68 1227.38 2428.3C1229.36 2422.64 1231.68 2417.26 1234.28 2411.86C1236.13 2408 1237.87 2404.12 1239.53 2400.18C1243.1 2391.73 1247.37 2383.83 1251.98 2375.9C1253.41 2373.41 1254.77 2370.89 1256.12 2368.36C1257.08 2366.61 1258.04 2364.86 1259 2363.11C1259.47 2362.24 1259.94 2361.37 1260.43 2360.48C1268.02 2346.94 1277.19 2334.03 1287.23 2322.21C1289.04 2320.13 1289.04 2320.13 1290.61 2317.83C1291.07 2317.27 1291.53 2316.7 1292 2316.11C1292.66 2316.11 1293.32 2316.11 1294 2316.11C1294.2 2315.59 1294.41 2315.06 1294.62 2314.52C1315.99 2277.28 1374.77 2259.41 1413 2248.11C1408.98 2247.51 1404.96 2246.9 1400.94 2246.3C1399.1 2246.03 1399.1 2246.03 1397.23 2245.75C1389.54 2244.61 1381.84 2243.57 1374.12 2242.61C1365.21 2241.49 1356.43 2239.96 1347.62 2238.21C1342.4 2237.18 1337.17 2236.26 1331.93 2235.36C1317.99 2232.94 1304.19 2230.08 1290.4 2226.9C1286.86 2226.08 1283.32 2225.28 1279.77 2224.47C1277.43 2223.94 1275.09 2223.4 1272.75 2222.86C1271.67 2222.62 1270.6 2222.37 1269.49 2222.12C1264.28 2220.92 1259.12 2219.65 1254 2218.11C1254.03 2219.11 1254.06 2220.11 1254.09 2221.14C1254 2225.15 1253.43 2228.8 1252.5 2232.68C1252.33 2233.4 1252.16 2234.11 1251.98 2234.85C1248.5 2248.7 1243.21 2262.27 1237 2275.11C1236.33 2276.57 1235.67 2278.04 1235.01 2279.5C1230.91 2288.49 1226.5 2296.92 1220.98 2305.12C1219.35 2307.58 1217.92 2310.01 1216.56 2312.61C1210.79 2323.24 1202.88 2332.68 1195.2 2341.96C1194.67 2342.6 1194.14 2343.25 1193.59 2343.91C1193.11 2344.48 1192.64 2345.05 1192.15 2345.64C1190.91 2347.13 1190.91 2347.13 1190 2349.11C1189.34 2349.11 1188.68 2349.11 1188 2349.11C1187.8 2349.65 1187.6 2350.18 1187.39 2350.74C1185.42 2354.12 1182.67 2356.56 1179.81 2359.18C1179.19 2359.75 1178.57 2360.32 1177.93 2360.91C1171.34 2366.86 1164.32 2372.1 1157 2377.11C1156.42 2377.52 1155.84 2377.92 1155.23 2378.33C1135.35 2391.94 1112.61 2401.06 1090 2409.11C1088.88 2409.52 1087.75 2409.93 1086.59 2410.34C1065.88 2417.55 1044.49 2422.28 1023.01 2426.51C1020.62 2426.99 1018.24 2427.49 1015.86 2428.01C983.944 2434.92 950.596 2437.9 918 2437.11C917.922 2433.31 918.256 2430.99 919.938 2427.55C921.681 2423.9 923.394 2420.25 925.02 2416.55C929.289 2406.84 933.833 2397.39 938.879 2388.07C940.865 2384.4 942.723 2380.68 944.562 2376.93C949.542 2366.9 955.11 2357.26 961.262 2347.91C962.666 2345.65 963.934 2343.4 965.191 2341.06C968.5 2335.06 972.378 2329.45 976.25 2323.8C976.963 2322.75 977.676 2321.7 978.41 2320.62C985.238 2310.61 992.443 2300.91 1000.06 2291.49C1001.08 2290.23 1002.1 2288.96 1003.12 2287.7C1003.61 2287.09 1004.1 2286.49 1004.6 2285.87C1005.9 2284.23 1007.19 2282.59 1008.47 2280.94C1009.18 2280.03 1009.89 2279.12 1010.62 2278.18C1011.24 2277.38 1011.85 2276.59 1012.48 2275.77C1012.98 2275.23 1013.48 2274.68 1014 2274.11C1014.66 2274.11 1015.32 2274.11 1016 2274.11C1016.24 2273.55 1016.49 2272.98 1016.74 2272.39C1018.23 2269.69 1020.01 2267.85 1022.18 2265.67C1023.02 2264.82 1023.86 2263.98 1024.73 2263.11C1025.62 2262.22 1026.52 2261.34 1027.44 2260.43C1028.35 2259.52 1029.26 2258.62 1030.2 2257.68C1036.22 2251.76 1042.27 2246.22 1049 2241.11C1050.41 2239.96 1050.41 2239.96 1051.84 2238.79C1058.31 2233.59 1065.03 2229.09 1072.12 2224.8C1072.94 2224.31 1073.75 2223.82 1074.58 2223.31C1084.56 2217.41 1094.96 2213.2 1105.94 2209.55C1107.69 2208.97 1107.69 2208.97 1109.48 2208.37C1118.35 2205.48 1127.19 2203.36 1136.38 2201.77C1139.82 2201.32 1139.82 2201.32 1142 2200.11C1144.3 2199.81 1146.6 2199.61 1148.91 2199.4C1151.05 2199.22 1151.05 2199.22 1153 2198.11C1154.52 2197.83 1156.04 2197.58 1157.57 2197.36C1158.47 2197.23 1159.36 2197.1 1160.29 2196.96C1161.69 2196.76 1161.69 2196.76 1163.12 2196.55C1164.54 2196.34 1164.54 2196.34 1165.99 2196.13C1168.33 2195.79 1170.66 2195.45 1173 2195.11C1167.44 2193.02 1161.88 2191.05 1156.19 2189.36C1147.37 2186.69 1138.75 2183.45 1130.11 2180.26C1126.93 2179.09 1123.74 2177.92 1120.56 2176.76C1108.7 2172.41 1096.89 2167.96 1085.12 2163.36C1083.44 2162.71 1083.44 2162.71 1081.73 2162.04C1075.04 2159.42 1068.52 2156.56 1062.02 2153.51C1057.22 2151.29 1052.33 2149.29 1047.44 2147.28C1034.12 2141.75 1021.19 2135.31 1008.23 2129.01C1005.71 2127.78 1003.2 2126.57 1000.68 2125.35C999.075 2124.57 997.467 2123.78 995.859 2123C995.113 2122.64 994.366 2122.28 993.596 2121.91C990.597 2120.44 987.781 2118.97 985 2117.11C983.52 2120.6 982.478 2123.99 981.625 2127.68C979.097 2137.99 975.551 2147.54 971 2157.11C970.342 2158.55 969.686 2159.99 969.031 2161.43C961.247 2178.39 951.862 2193.95 941 2209.11C940.562 2209.73 940.123 2210.34 939.672 2210.98C934.366 2218.37 934.366 2218.37 932 2221.11C931.34 2221.11 930.68 2221.11 930 2221.11C929.732 2221.7 929.464 2222.28 929.188 2222.88C927.985 2225.14 926.662 2226.92 925 2228.86C924.484 2229.48 923.969 2230.09 923.438 2230.72C922 2232.11 922 2232.11 920 2232.11C920 2232.77 920 2233.43 920 2234.11C919.34 2234.11 918.68 2234.11 918 2234.11C918 2234.77 918 2235.43 918 2236.11C916.693 2237.38 916.693 2237.38 914.844 2238.8C914.159 2239.33 913.475 2239.86 912.769 2240.4C912.02 2240.97 911.272 2241.53 910.5 2242.11C909.347 2242.99 909.347 2242.99 908.17 2243.88C895.857 2253.07 882.91 2260.62 869 2267.11C868.291 2267.45 867.582 2267.78 866.852 2268.12C847.167 2277.28 827.177 2283.73 806.188 2289.27C803.609 2289.95 801.036 2290.65 798.465 2291.37C788.412 2294.06 778.233 2295.61 767.953 2297.18C763.35 2297.88 758.809 2298.73 754.25 2299.68C743.06 2301.85 731.661 2302.73 720.323 2303.8C718.24 2304 716.158 2304.2 714.077 2304.42C707.471 2305.09 700.949 2305.24 694.312 2305.18C692.813 2305.17 692.813 2305.17 691.283 2305.16C688.855 2305.15 686.428 2305.14 684 2305.11C684.818 2298.08 687.117 2292.53 690 2286.11C690.795 2284.34 690.795 2284.34 691.605 2282.53C695.167 2274.7 699.068 2267.1 703.164 2259.54C704.669 2256.73 706.107 2253.91 707.5 2251.05C712.654 2240.64 718.765 2230.71 724.914 2220.86C726.077 2218.99 727.226 2217.11 728.375 2215.24C745.961 2186.6 767.295 2157.91 793 2136.11C793.931 2135.32 794.861 2134.52 795.82 2133.7C810.165 2121.5 826.156 2110.47 844 2104.11C844.731 2103.85 845.463 2103.59 846.216 2103.32C870.164 2094.75 894.583 2089.3 920.049 2088.4C923.262 2088.29 925.93 2088.14 929 2087.11C927.451 2086.28 927.451 2086.28 925.871 2085.42C914.022 2078.95 902.467 2072.05 890.981 2064.95C888.053 2063.15 885.118 2061.35 882.184 2059.55C860.845 2046.42 840.139 2032.33 819.93 2017.52C816.825 2015.26 813.694 2013.03 810.562 2010.8C805.381 2007.11 800.234 2003.38 795.109 1999.61C793.082 1998.09 793.082 1998.09 791 1997.11C790.596 1998.43 790.596 1998.43 790.184 1999.78C784.045 2017.08 770.171 2032.73 758 2046.11C757.456 2046.71 756.912 2047.32 756.352 2047.93C752.936 2051.69 749.504 2055.44 746 2059.11C745.203 2059.96 745.203 2059.96 744.39 2060.82C742.967 2062.29 741.487 2063.71 740 2065.11C739.34 2065.11 738.68 2065.11 738 2065.11C738 2065.77 738 2066.43 738 2067.11C736.121 2068.86 736.121 2068.86 733.438 2070.99C732.429 2071.79 731.421 2072.6 730.383 2073.42C729.834 2073.86 729.285 2074.29 728.72 2074.74C726.959 2076.15 725.224 2077.58 723.492 2079.02C695.7 2102.01 664.246 2112.79 628.812 2117.8C627.971 2117.92 627.129 2118.04 626.262 2118.16C611.747 2120.08 597.226 2120.28 582.611 2120.24C579.702 2120.24 576.793 2120.24 573.885 2120.25C557.541 2120.26 541.306 2119.7 525.062 2117.8C523.943 2117.67 522.823 2117.55 521.669 2117.41C513.141 2116.41 504.629 2115.3 496.125 2114.11C495.004 2113.96 493.882 2113.81 492.727 2113.65C485.037 2112.54 477.549 2110.93 470 2109.11C468.265 2108.72 466.53 2108.33 464.793 2107.95C464.023 2107.78 463.253 2107.6 462.459 2107.43C461.335 2107.18 461.335 2107.18 460.188 2106.93C458.988 2106.66 458.988 2106.66 457.764 2106.39C455.843 2105.96 453.921 2105.54 452 2105.11C452.543 2101.58 453.321 2099.19 455.438 2096.3C455.869 2095.7 456.301 2095.09 456.746 2094.47C457.16 2094.02 457.574 2093.58 458 2093.11C458.66 2093.11 459.32 2093.11 460 2093.11C460.215 2092.59 460.431 2092.07 460.652 2091.52C462.529 2088.17 465.035 2085.42 467.562 2082.55C471.281 2078.28 474.925 2073.99 478.438 2069.55C482.519 2064.5 487.009 2059.96 491.66 2055.44C494.072 2053.09 496.124 2050.93 498 2048.11C498.66 2048.11 499.32 2048.11 500 2048.11C500.66 2046.79 501.32 2045.47 502 2044.11C502.66 2044.11 503.32 2044.11 504 2044.11C504 2043.45 504 2042.79 504 2042.11C505.328 2040.81 505.328 2040.81 507.25 2039.24C510.972 2036.09 514.407 2032.72 517.812 2029.24C522.365 2024.62 527.092 2020.41 532.18 2016.38C534.666 2014.38 537.079 2012.33 539.482 2010.23C547.9 2002.94 556.882 1996.5 566 1990.11C566.631 1989.67 567.263 1989.22 567.913 1988.76C584.703 1976.9 602.876 1967.57 622 1960.11C623.551 1959.49 623.551 1959.49 625.133 1958.84C632.219 1956.09 639.516 1954.4 647 1953.11C647.942 1952.94 648.883 1952.77 649.854 1952.6C660.348 1950.87 670.7 1950.76 681.312 1950.8C682.698 1950.8 682.698 1950.8 684.111 1950.8C698.949 1950.83 713.335 1951.73 728 1954.11C729.463 1954.33 730.927 1954.55 732.391 1954.76C735.266 1955.18 738.134 1955.63 741 1956.11C740.161 1955.46 740.161 1955.46 739.305 1954.79C728.375 1946.14 717.888 1937.02 707.66 1927.56C705.488 1925.56 703.295 1923.61 701.062 1921.68C690.54 1912.5 680.604 1902.82 670.804 1892.88C669.98 1892.05 669.157 1891.22 668.309 1890.36C667.574 1889.61 666.84 1888.87 666.084 1888.1C664.051 1886.07 664.051 1886.07 661.731 1884.47C661.16 1884.03 660.588 1883.58 660 1883.11C660 1882.45 660 1881.79 660 1881.11C659.439 1880.88 658.879 1880.65 658.301 1880.4C651.3 1876.48 645.835 1869.04 640.656 1862.99C637.918 1859.89 634.96 1857.01 632 1854.11C630.667 1852.78 629.333 1851.45 628 1850.11C627.59 1850.76 627.18 1851.41 626.758 1852.08C626.219 1852.92 625.68 1853.75 625.125 1854.61C624.591 1855.45 624.058 1856.29 623.508 1857.15C623.01 1857.8 622.513 1858.45 622 1859.11C621.34 1859.11 620.68 1859.11 620 1859.11C619.749 1859.68 619.497 1860.25 619.238 1860.84C612.101 1873.96 596.587 1886.11 585 1895.11C584.029 1895.89 583.059 1896.67 582.059 1897.47C556.526 1917.6 530.197 1931.33 498 1937.11C496.445 1937.4 496.445 1937.4 494.858 1937.69C483.783 1939.44 472.769 1939.39 461.58 1939.32C458.281 1939.3 454.981 1939.3 451.682 1939.3C449.576 1939.3 447.469 1939.29 445.363 1939.28C444.381 1939.28 443.399 1939.28 442.387 1939.28C441.475 1939.27 440.562 1939.27 439.622 1939.26C438.424 1939.25 438.424 1939.25 437.202 1939.25C435.01 1939.12 433.117 1938.68 431 1938.11C428.74 1937.94 426.478 1937.8 424.215 1937.68C416.265 1937.21 408.433 1936.2 400.562 1934.99C399.863 1934.88 399.164 1934.78 398.443 1934.67C366.438 1929.75 335.754 1921.13 305 1911.11C304.67 1909.46 304.34 1907.81 304 1906.11C304.461 1905.73 304.923 1905.34 305.398 1904.93C311.224 1899.94 316.617 1894.58 322 1889.11C327.819 1883.21 333.68 1877.48 340 1872.11C341.106 1871.15 342.212 1870.19 343.316 1869.23C375.414 1841.47 411.744 1814.51 451.703 1799.37C453.959 1798.51 456.191 1797.59 458.398 1796.61C462.338 1794.97 466.278 1793.73 470.375 1792.55C471.127 1792.34 471.878 1792.12 472.653 1791.89C486.094 1788.06 498.753 1786.93 512.75 1786.99C513.992 1786.99 515.234 1787 516.514 1787C538.408 1787.15 558.796 1790.89 580 1796.11C579.501 1795.51 579.002 1794.9 578.488 1794.27C576.471 1791.81 574.456 1789.34 572.442 1786.88C570.952 1785.06 569.458 1783.24 567.965 1781.42C560.611 1772.44 553.493 1763.31 546.483 1754.06C545.138 1752.3 543.782 1750.54 542.418 1748.79C535.884 1740.38 529.654 1731.78 523.45 1723.13C521.582 1720.53 519.699 1717.95 517.812 1715.36C517.208 1714.53 516.603 1713.7 515.98 1712.84C514.899 1711.35 513.816 1709.86 512.729 1708.38C511.356 1706.5 509.99 1704.62 508.625 1702.74C508.196 1702.16 507.766 1701.57 507.323 1700.97C505.036 1697.8 503.263 1694.82 502 1691.11C501.34 1691.11 500.68 1691.11 500 1691.11C500 1691.77 500 1692.43 500 1693.11C499.34 1693.11 498.68 1693.11 498 1693.11C497.776 1693.67 497.551 1694.23 497.32 1694.8C488.151 1710.86 464.303 1722.9 449 1732.11C447.972 1732.74 447.972 1732.74 446.922 1733.37C432.26 1742.13 417.021 1749.2 400.625 1754.05C399.676 1754.33 398.726 1754.62 397.748 1754.91C384.244 1758.7 370.871 1759.52 356.938 1759.49C356.117 1759.49 355.296 1759.49 354.451 1759.49C336.022 1759.47 317.885 1757.76 300 1753.11C297.877 1752.73 295.752 1752.36 293.625 1751.99C281.818 1749.76 270.42 1745.78 259 1742.11C257.955 1741.78 256.91 1741.45 255.833 1741.11C242.183 1736.76 228.876 1731.86 215.692 1726.26C212.986 1725.11 210.271 1723.98 207.555 1722.86C198.229 1718.98 189.168 1714.85 180.327 1709.94C177.23 1708.23 174.454 1706.87 171 1706.11C170.578 1703.95 170.578 1703.95 171 1701.11C173.216 1699.04 175.276 1697.39 177.75 1695.68C178.465 1695.16 179.18 1694.65 179.917 1694.12C181.464 1693.01 183.017 1691.91 184.575 1690.82C186.989 1689.12 189.384 1687.4 191.777 1685.68C215.472 1668.71 240.71 1653.7 267 1641.11C267.688 1640.78 268.375 1640.45 269.083 1640.1C326.113 1612.47 380.725 1604.52 441.027 1625.15C448.935 1628 456.512 1631.29 464 1635.11C463.625 1634.57 463.25 1634.02 462.863 1633.46C459.776 1628.91 456.962 1624.32 454.344 1619.49C452.362 1615.99 450.155 1612.64 447.941 1609.28C445.711 1605.64 443.686 1601.92 441.657 1598.17C438.753 1592.82 435.776 1587.5 432.812 1582.18C431.153 1579.19 429.495 1576.21 427.836 1573.22C426.347 1570.54 424.857 1567.86 423.365 1565.18C417.3 1554.28 411.489 1543.31 406 1532.11C404.671 1529.45 403.336 1526.78 402 1524.11C398.377 1526.4 395.093 1528.86 391.812 1531.61C358.218 1558.7 311.599 1578.35 268.25 1577.74C267.293 1577.73 266.337 1577.73 265.351 1577.72C251.062 1577.61 237.595 1576.62 223.746 1572.86C220.874 1572.08 217.989 1571.38 215.094 1570.69C202.437 1567.62 190.191 1563.68 178 1559.11C177.218 1558.82 176.435 1558.53 175.629 1558.24C165.864 1554.6 156.364 1550.59 146.981 1546.06C144.882 1545.06 142.769 1544.09 140.652 1543.13C127.674 1537.19 115.341 1530.27 103 1523.11C101.43 1522.21 99.8596 1521.31 98.2891 1520.41C91.2551 1516.35 84.3182 1512.15 77.5 1507.74C76.5371 1507.13 76.5371 1507.13 75.5547 1506.51C71.1551 1503.61 71.1551 1503.61 70.3262 1500.98C70.2185 1500.36 70.1109 1499.75 70 1499.11C91.9908 1485.9 114.536 1473.53 138 1463.11C139.283 1462.53 140.565 1461.95 141.848 1461.36C149.496 1457.91 157.205 1454.85 165.154 1452.16C168.284 1451.09 171.3 1449.98 174.332 1448.65C195.187 1439.9 218.256 1435.22 240.611 1432.42C242.533 1432.18 244.449 1431.89 246.364 1431.59C291.741 1425.67 339.149 1443.28 376 1469.11C374.198 1463.92 372.037 1458.96 369.688 1453.99C364.662 1443.33 360.095 1432.61 356.211 1421.47C354.724 1417.35 353.027 1413.33 351.312 1409.3C349.533 1404.98 347.916 1400.61 346.297 1396.23C344.66 1391.82 342.922 1387.46 341.125 1383.11C338.389 1376.32 335.973 1369.43 333.625 1362.49C333.088 1360.92 333.088 1360.92 332.54 1359.33C332.209 1358.34 331.879 1357.35 331.539 1356.33C331.242 1355.44 330.945 1354.56 330.639 1353.65C329.98 1351.03 329.881 1348.8 330 1346.11C328.399 1347.04 328.399 1347.04 326.766 1347.99C285.852 1371.37 235.461 1387.41 188.438 1375.24C185.955 1374.54 183.476 1373.84 181 1373.11C179.38 1372.65 179.38 1372.65 177.727 1372.18C163.869 1368.07 150.807 1362.87 138.012 1356.16C136.037 1355.13 134.05 1354.13 132.059 1353.13C114.159 1344.03 97.0704 1333.14 81 1321.11C79.6512 1320.12 78.3022 1319.12 76.9531 1318.12C65.4871 1309.6 54.38 1300.72 43.5366 1291.43C42.1008 1290.2 40.6543 1288.99 39.207 1287.77C38.3962 1287.08 37.5854 1286.39 36.75 1285.68C36.0436 1285.08 35.3372 1284.48 34.6094 1283.87C32.8418 1281.94 32.382 1280.67 32 1278.11C32.7644 1277.82 33.5288 1277.53 34.3164 1277.23C40.2411 1274.96 46.1326 1272.65 52 1270.24C68.0816 1263.75 84.6008 1258.95 101.411 1254.76C103.713 1254.19 106.009 1253.59 108.305 1252.99C118.07 1250.45 127.913 1248.41 137.823 1246.53C139.605 1246.19 141.385 1245.84 143.164 1245.49C194.683 1235.99 242.731 1243.51 286 1273.11C295.068 1279.6 303.882 1286.46 312 1294.11C310.114 1285.27 310.114 1285.27 307.5 1276.61C305.872 1272 304.858 1267.3 303.844 1262.52C303.212 1259.97 302.502 1257.66 301.625 1255.2C299.305 1248.39 297.982 1241.32 296.5 1234.3C295.909 1231.52 295.315 1228.75 294.719 1225.97C294.575 1225.3 294.43 1224.62 294.282 1223.93C293.177 1218.82 291.932 1213.75 290.639 1208.69C289.809 1205.34 289.14 1202 288.5 1198.61C287.604 1194.01 286.618 1189.47 285.438 1184.93C284.145 1179.92 283.222 1174.91 282.43 1169.81C282.018 1167.23 281.529 1164.67 281 1162.11C280.118 1162.53 280.118 1162.53 279.219 1162.96C271.919 1166.22 264.482 1168.57 256.812 1170.8C255.792 1171.1 254.771 1171.4 253.719 1171.7C223.168 1180.44 186.975 1183.7 156 1175.11C155.238 1174.91 154.475 1174.7 153.69 1174.48C137.799 1169.97 122.729 1162.88 108.859 1153.94C106.815 1152.63 104.728 1151.4 102.617 1150.2C98.726 1148 95.0504 1145.53 91.375 1142.99C90.6806 1142.51 89.9862 1142.03 89.2708 1141.54C75.9796 1132.29 63.3286 1122.14 51.3516 1111.25C47.0065 1107.3 42.6508 1103.39 38 1099.8C37.01 1098.97 37.01 1098.97 36 1098.11C36 1097.45 36 1096.79 36 1096.11C35.4225 1095.87 34.845 1095.62 34.25 1095.36C31.6706 1093.93 29.9388 1092.33 28 1090.11C28 1089.45 28 1088.79 28 1088.11C27.34 1088.11 26.68 1088.11 26 1088.11C26 1087.45 26 1086.79 26 1086.11C25.34 1086.11 24.68 1086.11 24 1086.11C24 1085.45 24 1084.79 24 1084.11C23.34 1084.11 22.68 1084.11 22 1084.11C20.7656 1082.89 20.7656 1082.89 19.25 1081.05C16.7441 1078.08 14.1617 1075.22 11.4609 1072.42C10.8316 1071.76 10.2022 1071.11 9.55371 1070.43C8.28047 1069.11 6.99998 1067.79 5.71191 1066.48C0.193343 1060.71 0.193343 1060.71 0 1056.11C6.58831 1053.67 13.2266 1052.09 20.0874 1050.65C24.1662 1049.78 28.1702 1048.8 32.1797 1047.65C38.7913 1045.82 45.4884 1044.68 52.25 1043.55C53.4579 1043.34 54.6657 1043.14 55.9102 1042.92C70.5107 1040.44 84.9716 1038.74 99.75 1037.99C100.544 1037.95 101.337 1037.91 102.155 1037.86C129.47 1036.44 157.381 1035.94 184 1043.11C185.034 1043.39 185.034 1043.39 186.089 1043.67C213.69 1051.25 238.586 1066.94 258.449 1087.56C259.939 1089.05 261.479 1090.36 263.125 1091.68C266.203 1094.29 268.504 1096.96 271 1100.11C270.448 1095.12 269.888 1090.13 269.316 1085.14C267.923 1072.89 266.622 1060.65 265.647 1048.36C265.575 1047.48 265.503 1046.6 265.43 1045.68C265.37 1044.92 265.311 1044.15 265.25 1043.36C265.037 1041.1 265.037 1041.1 264.514 1038.86C263.951 1035.85 263.713 1032.93 263.519 1029.87C263.439 1028.64 263.359 1027.4 263.277 1026.12C263.194 1024.78 263.11 1023.43 263.027 1022.09C262.939 1020.7 262.851 1019.31 262.763 1017.93C262.578 1015.02 262.396 1012.11 262.216 1009.21C261.985 1005.49 261.75 1001.78 261.513 998.073C261.33 995.206 261.15 992.339 260.97 989.471C260.884 988.104 260.797 986.737 260.71 985.369C260.588 983.451 260.47 981.532 260.351 979.613C260.283 978.524 260.215 977.436 260.145 976.314C259.991 972.91 259.976 969.522 260 966.115C259.161 966.405 259.161 966.405 258.305 966.7C244.797 971.087 231.308 971.463 217.244 971.43C214.4 971.427 211.558 971.451 208.715 971.476C192.64 971.532 176.715 970.044 161.25 965.427C159.95 965.045 159.95 965.045 158.624 964.655C150.23 962.067 142.593 958.501 135 954.115C134.005 953.542 134.005 953.542 132.99 952.958C119.315 944.977 107.209 935.416 95.6758 924.607C93.4273 922.513 91.1461 920.487 88.8125 918.49C82.3288 912.853 76.3828 906.71 70.7969 900.189C68.8254 897.913 66.7887 895.705 64.75 893.49C52.9071 880.342 42.5418 865.779 32.4844 851.243C31.1446 849.322 29.7659 847.437 28.375 845.552C26.004 842.253 24.0623 838.768 22.1406 835.193C21.2106 833.498 20.1809 831.859 19.125 830.24C18.7537 829.538 18.3825 828.837 18 828.115C18.33 827.125 18.66 826.135 19 825.115C52.33 821.576 85.6129 820.49 119 824.115C119.903 824.206 120.806 824.297 121.736 824.391C171.279 829.532 214.546 846.665 246.625 885.615C248.089 887.443 249.548 889.276 251 891.115C251.688 891.97 252.377 892.826 253.086 893.708C257.869 899.721 257.869 899.721 259 903.115C259.02 901.94 259.04 900.765 259.06 899.555C259.752 859.683 260.881 819.708 266 780.115C265.133 780.327 265.133 780.327 264.249 780.543C255.779 782.364 247.487 782.419 238.869 782.375C236.4 782.365 233.933 782.375 231.465 782.388C215.568 782.405 200.485 780.608 185 776.927C184.031 776.697 184.031 776.697 183.042 776.463C161.376 771.282 144.28 762.161 127 748.115C124.553 746.271 122.107 744.428 119.652 742.595C118.834 741.862 118.834 741.862 118 741.115C118 740.455 118 739.795 118 739.115C117.457 738.897 116.915 738.679 116.355 738.454C113.203 736.661 110.833 734.244 108.312 731.677C107.784 731.143 107.255 730.609 106.71 730.058C101.787 725.018 97.372 719.635 93 714.115C91.5219 712.343 90.0427 710.572 88.5625 708.802C83.8747 703.075 79.5807 697.099 75.345 691.035C74.357 689.624 73.3624 688.218 72.364 686.815C68.2137 680.956 64.319 674.983 60.5625 668.865C59.9983 667.948 59.4341 667.031 58.8528 666.086C51.6519 654.339 44.9612 642.431 38.9512 630.03C38.2838 628.686 37.5899 627.355 36.877 626.035C36.5102 625.347 36.1435 624.659 35.7656 623.95C35.4282 623.335 35.0908 622.719 34.7432 622.085C33.8337 619.674 33.8752 617.67 34 615.115C81.1776 614.507 81.1776 614.507 92 618.115C94.4165 618.458 96.8262 618.77 99.25 619.052C102.167 619.401 105.084 619.755 108 620.115C109.679 620.315 109.679 620.315 111.392 620.519C120.14 621.612 128.669 623.158 137.25 625.177C139.175 625.629 139.175 625.629 141.139 626.091C170.883 633.236 200.69 643.628 224 664.115C225.396 665.313 225.396 665.313 226.82 666.536C232.022 671.086 232.022 671.086 234 673.115C234 673.775 234 674.435 234 675.115C234.66 675.115 235.32 675.115 236 675.115C243.261 682.647 248.996 691.686 254.808 700.344C255.802 701.82 256.809 703.287 257.82 704.751C263.07 712.406 267.551 720.492 271 729.115C273.021 725.696 273.415 722.731 273.812 718.802C274.684 711.011 275.865 703.273 277.109 695.534C277.429 693.542 277.744 691.551 278.06 689.559C279.272 682.06 280.701 674.646 282.333 667.227C283.168 663.331 283.829 659.426 284.438 655.49C285.527 648.736 286.742 642.014 288.062 635.302C288.225 634.46 288.387 633.618 288.554 632.751C288.713 631.957 288.872 631.163 289.035 630.345C289.173 629.648 289.311 628.951 289.453 628.232C290.092 625.758 291.011 623.468 292 621.115C290.935 621.13 290.935 621.13 289.848 621.146C286.586 621.188 283.324 621.214 280.062 621.24C278.946 621.256 277.829 621.273 276.678 621.29C270.109 621.329 264.334 620.786 258 619.115C256.351 618.759 254.699 618.412 253.047 618.072C229.089 612.955 205.145 605.517 185 591.115C183.486 590.043 183.486 590.043 181.941 588.95C159.094 572.327 140.738 548.163 128 523.115C127.227 521.672 126.45 520.23 125.672 518.79C120.891 509.907 116.453 500.979 112.52 491.689C111.194 488.571 109.806 485.497 108.375 482.427C103.741 472.232 100.088 461.67 96.375 451.115C95.9905 450.035 95.6061 448.955 95.21 447.843C89 430.007 89 430.007 89 421.115C93.8827 420.986 98.2467 421.399 103.023 422.4C104.005 422.604 104.005 422.604 105.007 422.812C107.132 423.258 109.253 423.716 111.375 424.177C112.107 424.334 112.839 424.492 113.594 424.654C136.283 429.55 158.175 436.217 180 444.115C180.711 444.37 181.423 444.625 182.156 444.888C225.421 460.5 267.01 487.093 287.352 529.591C287.896 530.754 288.44 531.917 289 533.115C289.59 534.331 290.181 535.547 290.773 536.763C293.908 543.253 296.762 549.809 299.312 556.552C299.676 557.509 299.676 557.509 300.047 558.485C301.702 562.975 302.903 567.466 304 572.115C304.219 571.119 304.438 570.124 304.664 569.099C307.076 558.386 310.076 547.925 313.299 537.431C314.621 533.06 315.832 528.658 317.043 524.255C317.773 521.86 318.566 519.573 319.461 517.24C321.015 513.172 322.249 509.051 323.438 504.865C328.363 487.847 328.363 487.847 331.562 480.552C333.117 476.836 334.107 473.159 335.059 469.251C336.409 464.753 338.21 460.453 340 456.115C339.347 455.944 338.695 455.774 338.022 455.599C303.824 446.591 272.869 432.795 247 408.115C246.402 407.58 245.804 407.045 245.188 406.493C239.127 400.867 234.604 393.934 230 387.115C229.465 386.326 228.93 385.537 228.379 384.724C216.86 366.58 209.373 345.881 203.613 325.29C202.997 323.103 202.36 320.923 201.719 318.743C182.398 252.318 182.398 252.318 190 237.115C194.129 236.93 196.874 237.198 200.562 239.052C205.161 241.273 209.802 243.311 214.512 245.28C224.329 249.394 233.714 253.923 243 259.115C244.854 260.116 246.708 261.116 248.562 262.115C259.356 268.04 269.872 274.091 280 281.115C280.552 281.493 281.103 281.872 281.671 282.262C289.608 287.727 297.082 293.545 304.355 299.865C306.976 302.183 306.976 302.183 310 304.115C310 304.775 310 305.435 310 306.115C311.32 306.775 312.64 307.435 314 308.115C314 308.775 314 309.435 314 310.115C315.32 310.775 316.64 311.435 318 312.115C318 312.775 318 313.435 318 314.115C318.66 314.115 319.32 314.115 320 314.115C329.721 324.192 338.506 337.239 344 350.115C344.468 351.2 344.936 352.285 345.418 353.404C351.812 368.964 355.75 385.946 357.676 402.638C357.937 405.242 357.937 405.242 359 408.115C359.454 406.79 359.454 406.79 359.918 405.439C362.257 398.738 364.739 392.241 367.758 385.81C369.042 383.023 370.216 380.206 371.375 377.365C373.486 372.25 375.773 367.237 378.139 362.236C379.837 358.636 381.493 355.023 383.098 351.38C388.257 339.682 393.909 328.355 400 317.115C399.287 317 398.574 316.885 397.84 316.767C370.862 310.57 342.409 279.214 328 257.115C325.693 253.217 323.782 249.275 322 245.115C321.501 244.025 321.002 242.936 320.488 241.814C317.345 234.569 315.109 227.304 313.312 219.615C313.122 218.817 312.932 218.019 312.736 217.197C308.649 198.589 307.481 179.923 307.625 160.927C307.629 159.863 307.632 158.799 307.636 157.703C307.703 140.988 308.474 124.658 311 108.115C311.144 107.133 311.288 106.151 311.437 105.139C312.225 99.7852 313.074 94.4462 314 89.1145C318.645 88.63 320.633 89.8979 324.25 92.7395C324.757 93.1349 325.263 93.5302 325.785 93.9375C327.536 95.3147 329.269 96.713 331 98.1145C331.662 98.6448 332.324 99.1751 333.005 99.7215C345.265 109.564 357.015 119.855 368 131.115C368.825 131.94 369.65 132.765 370.5 133.615C371.325 134.44 372.15 135.265 373 136.115C373.534 136.637 374.067 137.159 374.617 137.697C405.476 168.075 425.841 204.203 426.625 247.865C426.663 249.641 426.702 251.417 426.742 253.193C426.837 257.5 426.922 261.807 427 266.115C427.471 265.162 427.942 264.209 428.428 263.228C429.057 261.961 429.687 260.694 430.316 259.427C430.626 258.801 430.935 258.175 431.254 257.531C433.442 253.134 435.821 248.923 438.398 244.747C440.718 240.934 442.915 237.052 445.085 233.152C446.923 229.876 448.904 226.901 451.188 223.927C452.749 221.481 453.044 220.494 452.703 217.575C451.912 214.71 450.961 211.927 450 209.115C441.478 172.645 446.366 128.238 466 96.1145C468.554 92.3572 471.236 88.719 474 85.1145C474.509 84.4399 475.018 83.7652 475.543 83.0701C479.655 77.6813 484.02 72.652 488.688 67.7395C489.387 67.002 490.086 66.2645 490.806 65.5047C500.278 55.595 510.409 46.766 521.283 38.4378C522.915 37.18 524.532 35.905 526.145 34.6223C540.597 23.2419 556.202 13.5036 572 4.11452C572.65 3.72168 573.3 3.32884 573.969 2.92409C577.514 0.822859 579.823 -0.391769 584 0.11452ZM357 411.115C358 413.115 358 413.115 358 413.115L357 411.115ZM297 735.115C298 737.115 298 737.115 298 737.115L297 735.115ZM492 1600.11C493 1602.11 493 1602.11 493 1602.11L492 1600.11Z" fill="#070707"/>
</svg>
