<svg width="1625" height="2535" viewBox="0 0 1625 2535" fill="none" xmlns="http://www.w3.org/2000/svg">
<path d="M1040.14 0C1045.16 0.58163 1049.01 2.86901 1053.33 5.3125C1054.12 5.75545 1054.91 6.19841 1055.72 6.65479C1064.49 11.6604 1072.83 17.2641 1081.14 23C1081.86 23.4873 1082.57 23.9745 1083.31 24.4766C1098.91 35.1023 1113.53 46.923 1127.14 60C1127.68 60.5195 1128.22 61.039 1128.78 61.5742C1142.92 75.2307 1142.92 75.2307 1148.14 83C1148.14 83.66 1148.14 84.32 1148.14 85C1148.8 85 1149.46 85 1150.14 85C1151.37 86.446 1151.37 86.446 1152.75 88.4805C1153.51 89.5981 1153.51 89.5981 1154.28 90.7383C1172.45 118.355 1177.9 148.276 1177.14 181C1177.13 181.688 1177.12 182.376 1177.1 183.085C1176.84 195.339 1175.09 206.908 1171.3 218.598C1171.06 222.236 1172.66 224.12 1174.64 227.125C1175.01 227.692 1175.37 228.259 1175.75 228.843C1176.87 230.571 1178 232.286 1179.14 234C1183.03 239.969 1186.72 245.861 1189.8 252.292C1191.23 255.175 1192.75 257.993 1194.29 260.812C1194.83 261.788 1195.36 262.764 1195.91 263.77C1196.32 264.506 1196.72 265.242 1197.14 266C1197.15 264.943 1197.16 263.886 1197.17 262.797C1197.21 258.782 1197.28 254.768 1197.35 250.753C1197.38 249.033 1197.4 247.313 1197.41 245.593C1197.76 205.887 1216.77 174.084 1243.01 145.352C1244.82 143.349 1246.58 141.313 1248.33 139.25C1256.22 130.198 1264.96 121.731 1274.14 114C1275.62 112.701 1275.62 112.701 1277.14 111.375C1283.68 105.652 1290.36 100.115 1297.2 94.75C1298.27 93.8903 1298.27 93.8903 1299.37 93.0132C1300.05 92.4881 1300.73 91.9629 1301.43 91.4219C1302.02 90.9536 1302.62 90.4854 1303.23 90.0029C1305.65 88.7338 1307.45 88.8207 1310.14 89C1310.78 92.852 1311.4 96.7069 1312.02 100.562C1312.28 102.134 1312.28 102.134 1312.54 103.736C1315.44 122.016 1316.48 140.335 1316.4 158.827C1316.39 161.829 1316.4 164.831 1316.41 167.834C1316.43 183.067 1315.47 198.046 1312.39 213C1312.14 214.235 1312.14 214.235 1311.88 215.495C1306.71 239.465 1296.58 259.327 1279.75 277.176C1277.88 279.201 1276.15 281.209 1274.43 283.355C1273.68 284.228 1272.92 285.101 1272.14 286C1271.48 286 1270.82 286 1270.14 286C1270.14 286.66 1270.14 287.32 1270.14 288C1268.57 289.438 1266.93 290.8 1265.27 292.125C1263.75 293.333 1263.75 293.333 1262.21 294.566C1261.2 295.369 1260.18 296.173 1259.14 297C1258.3 297.69 1257.47 298.379 1256.61 299.09C1246.83 307.117 1236.6 313.636 1225.14 319C1225.59 319.888 1226.04 320.776 1226.5 321.691C1242.24 352.883 1242.24 352.883 1247.97 367.191C1249.42 370.66 1251.03 374.045 1252.64 377.438C1255.39 383.225 1257.8 389.075 1260 395.098C1261.13 398.089 1261.13 398.089 1262.74 401.191C1264.07 403.858 1264.71 406.069 1265.14 409C1266.27 404.14 1267.28 399.303 1268.08 394.375C1268.25 393.348 1268.42 392.32 1268.6 391.262C1268.96 389.079 1269.31 386.894 1269.65 384.707C1276.29 346.639 1298.36 314.9 1329.14 292C1330.08 291.295 1330.08 291.295 1331.04 290.575C1341.4 282.824 1352.02 275.74 1363.17 269.167C1364.91 268.137 1366.64 267.091 1368.38 266.043C1383.3 257.108 1399.24 250.005 1415.14 243C1415.92 242.656 1416.7 242.311 1417.5 241.957C1419.56 241.057 1421.63 240.18 1423.7 239.312C1424.84 238.834 1425.97 238.356 1427.14 237.863C1430.32 236.949 1432.02 237.041 1435.14 238C1434.76 250.423 1433.71 262.446 1431.54 274.684C1431.15 276.973 1430.78 279.264 1430.42 281.559C1427.68 298.962 1424.59 317.391 1417.98 333.793C1417.03 336.281 1416.22 338.804 1415.4 341.338C1413.1 348.466 1410.36 355.235 1407.14 362C1406.61 363.226 1406.09 364.455 1405.58 365.688C1393.62 393.253 1374.75 414.58 1349.14 430C1348.57 430.348 1347.99 430.696 1347.4 431.055C1327.98 442.717 1306.01 453.533 1283.14 455C1283.56 456.044 1283.99 457.088 1284.43 458.164C1288.28 467.789 1291.69 477.478 1294.74 487.385C1295.98 491.401 1297.25 495.378 1298.75 499.305C1300.21 503.197 1301.28 507.069 1302.3 511.094C1303.15 514.031 1304.22 516.842 1305.32 519.697C1306.94 524.228 1308.2 528.873 1309.52 533.5C1311.57 540.656 1313.67 547.787 1315.95 554.875C1317.75 560.535 1319.2 566.137 1320.14 572C1321.48 570.863 1321.48 570.863 1321.52 567.875C1322.05 564.582 1322.82 562.166 1324.21 559.176C1325.41 556.379 1326.31 553.512 1327.27 550.625C1330.1 542.58 1334.05 535.303 1338.15 527.846C1339.36 525.589 1340.41 523.272 1341.45 520.938C1343.79 516.193 1346.87 512.043 1350.02 507.812C1350.51 507.147 1351 506.481 1351.51 505.795C1355.05 501.148 1358.94 497.053 1363.14 493C1364.32 491.793 1364.32 491.793 1365.52 490.562C1395.58 461.211 1435.94 446.624 1475.14 434C1476.06 433.703 1476.98 433.406 1477.93 433.1C1489.29 429.467 1500.87 426.966 1512.54 424.553C1515.02 424.026 1517.48 423.447 1519.95 422.863C1523.42 422.087 1526.63 421.785 1530.2 421.875C1531.14 421.893 1532.08 421.911 1533.05 421.93C1534.09 421.964 1534.09 421.964 1535.14 422C1534.67 427.99 1533.64 433.372 1531.7 439.051C1531.33 440.15 1531.33 440.15 1530.96 441.271C1530.18 443.622 1529.38 445.967 1528.58 448.312C1528.03 449.938 1527.48 451.564 1526.93 453.19C1521.26 469.893 1514.89 486.145 1507.14 502C1506.82 502.67 1506.49 503.341 1506.16 504.032C1502.6 511.357 1499 518.592 1494.66 525.496C1493.32 527.705 1492.08 529.937 1490.85 532.207C1488.16 537.07 1485.16 541.67 1482.02 546.25C1481.45 547.075 1480.88 547.9 1480.3 548.75C1475.33 555.9 1469.93 562.505 1464.14 569C1463.06 570.261 1463.06 570.261 1461.96 571.547C1437.95 599.384 1400.51 613.619 1365.14 620C1364.05 620.205 1362.96 620.41 1361.84 620.621C1351.93 622.278 1342.15 622.192 1332.14 622C1332.49 623.154 1332.49 623.154 1332.84 624.332C1335.96 635.314 1337.96 646.439 1339.98 657.668C1340.81 662.266 1341.72 666.821 1342.77 671.375C1344.13 677.554 1345.01 683.76 1345.87 690.026C1347.24 700.001 1348.88 709.932 1350.52 719.867C1350.73 721.152 1350.94 722.437 1351.15 723.762C1351.34 724.916 1351.53 726.071 1351.73 727.26C1352.14 730 1352.14 730 1352.14 732C1352.4 731.392 1352.65 730.783 1352.92 730.156C1358.78 716.731 1366.11 704.364 1374.9 692.662C1376.1 691.056 1377.27 689.429 1378.43 687.801C1389.13 673.234 1401.66 661.314 1417.14 652C1418.01 651.442 1418.88 650.884 1419.77 650.309C1468.68 619.402 1534.04 615.433 1590.14 616C1589.42 620.966 1587.95 624.891 1585.64 629.312C1585.11 630.35 1585.11 630.35 1584.57 631.408C1583.43 633.61 1582.29 635.805 1581.14 638C1580.4 639.432 1579.66 640.864 1578.93 642.297C1567.88 663.595 1555.03 684.167 1540.14 703C1539.66 703.611 1539.17 704.223 1538.68 704.853C1531.51 713.899 1524.13 722.659 1516.14 731C1515.64 731.527 1515.14 732.054 1514.63 732.597C1503.06 744.731 1490.66 754.596 1476.14 763C1475.39 763.459 1474.63 763.918 1473.86 764.391C1460.2 772.455 1445.51 775.862 1430.14 779C1429.27 779.186 1428.39 779.372 1427.49 779.564C1422.74 780.559 1418.13 781.283 1413.27 781.562C1409.26 781.746 1409.26 781.746 1405.35 782.505C1400.18 783.664 1394.66 783.19 1389.39 783.188C1387.44 783.188 1387.44 783.188 1385.44 783.189C1376.16 783.139 1367.29 782.509 1358.14 781C1358.27 781.973 1358.39 782.945 1358.52 783.948C1360.03 795.92 1360.92 807.899 1361.7 819.938C1361.83 821.827 1361.96 823.717 1362.08 825.607C1362.45 831.071 1362.8 836.535 1363.14 842C1363.19 842.776 1363.24 843.551 1363.29 844.351C1364.1 857.103 1364.44 869.851 1364.7 882.625C1364.75 884.615 1364.79 886.604 1364.83 888.594C1364.94 893.396 1365.04 898.198 1365.14 903C1365.59 902.345 1366.04 901.69 1366.51 901.015C1369.79 896.29 1373.08 891.668 1376.77 887.25C1377.52 886.341 1378.28 885.432 1379.06 884.496C1380.09 883.261 1380.09 883.261 1381.14 882C1381.67 881.331 1382.21 880.662 1382.75 879.973C1383.84 878.612 1384.98 877.299 1386.14 876C1386.8 876 1387.46 876 1388.14 876C1388.45 875.188 1388.45 875.188 1388.77 874.359C1390.67 871.09 1393.3 868.763 1396.08 866.25C1396.66 865.721 1397.24 865.191 1397.84 864.646C1402.99 860.014 1408.37 855.847 1414.14 852C1414.91 851.481 1415.69 850.961 1416.48 850.426C1428.71 842.66 1442.32 838.028 1456.14 834C1457.21 833.652 1458.28 833.304 1459.38 832.945C1470.34 829.491 1481.68 827.864 1493.04 826.298C1494.55 826.084 1496.06 825.859 1497.56 825.628C1514.51 823.033 1531.24 822.562 1548.36 822.677C1551.07 822.691 1553.78 822.686 1556.49 822.681C1592.38 822.631 1592.38 822.631 1605.14 826C1604.67 831.212 1603.62 834.443 1600.64 838.73C1599.92 839.782 1599.19 840.833 1598.45 841.916C1597.68 843.007 1596.91 844.097 1596.14 845.188C1595.04 846.778 1595.04 846.778 1593.93 848.4C1588.84 855.736 1583.54 862.889 1578.14 870C1577.26 871.174 1576.38 872.349 1575.5 873.523C1565.24 887.017 1554.16 900.047 1542.14 912C1541.01 913.15 1539.88 914.301 1538.76 915.453C1531.56 922.78 1524.34 929.775 1516.14 936C1515.58 936.427 1515.03 936.855 1514.46 937.295C1484.15 960.493 1451.75 972.473 1413.43 972.261C1411.14 972.25 1408.85 972.261 1406.56 972.273C1392.41 972.287 1378.81 970.884 1365.14 967C1364.02 978.007 1362.97 988.992 1362.48 1000.05C1362.34 1003.22 1362.1 1006.3 1361.63 1009.44C1361.16 1012.85 1360.99 1016.12 1360.9 1019.56C1360.25 1042.48 1357.21 1065.48 1354 1088.18C1353.41 1092.49 1353 1096.63 1353.14 1101C1353.47 1100.34 1353.8 1099.68 1354.14 1099C1354.8 1099 1355.46 1099 1356.14 1099C1356.38 1098.44 1356.62 1097.87 1356.86 1097.29C1361.17 1089.57 1369.56 1083.64 1376.38 1078.21C1378.17 1076.78 1379.94 1075.32 1381.68 1073.82C1415.28 1045.21 1455.28 1037.49 1498.33 1037.75C1499.73 1037.75 1499.73 1037.75 1501.15 1037.76C1543.22 1037.92 1583.59 1045.03 1624.14 1056C1623.38 1061.12 1621.06 1063.71 1617.52 1067.31C1616.48 1068.39 1615.45 1069.47 1614.41 1070.55C1613.88 1071.11 1613.34 1071.67 1612.78 1072.24C1611.11 1074.03 1609.52 1075.87 1607.93 1077.73C1603.72 1082.57 1599.2 1087.09 1594.65 1091.62C1593.21 1093.06 1591.76 1094.51 1590.32 1095.96C1585.1 1101.18 1579.77 1106.21 1574.14 1111C1573.07 1111.94 1572 1112.88 1570.93 1113.82C1548.57 1133.3 1524.56 1150.44 1498.14 1164C1497.03 1164.58 1495.93 1165.16 1494.79 1165.76C1488.1 1169.06 1481.16 1171.45 1474.08 1173.75C1473.18 1174.04 1472.28 1174.34 1471.36 1174.64C1458.8 1178.58 1446.82 1179.32 1433.76 1179.26C1431.11 1179.25 1428.45 1179.26 1425.8 1179.27C1409.04 1179.29 1392.87 1177.91 1376.58 1173.81C1375.35 1173.51 1374.12 1173.21 1372.85 1172.9C1347.63 1166.49 1347.63 1166.49 1343.14 1162C1341.98 1166.32 1341.02 1170.58 1340.34 1175.01C1338.82 1184.28 1336.75 1193.44 1334.77 1202.62C1334.37 1204.44 1333.98 1206.26 1333.59 1208.07C1331.75 1216.66 1329.88 1225.23 1327.98 1233.8C1327.82 1234.51 1327.67 1235.21 1327.51 1235.94C1323.4 1254.39 1323.4 1254.39 1320.68 1262.34C1319.04 1267.16 1317.82 1272.05 1316.64 1277C1315.1 1283.45 1313.34 1289.74 1311.14 1296C1311.64 1295.47 1312.14 1294.93 1312.65 1294.38C1333.32 1272.94 1361.74 1256.64 1389.95 1247.75C1391.09 1247.38 1391.09 1247.38 1392.25 1247C1406.21 1242.81 1420.93 1242.65 1435.39 1242.75C1436.2 1242.75 1437.01 1242.76 1437.85 1242.76C1487.64 1243.06 1535.85 1256.79 1582.14 1274.38C1582.96 1274.67 1583.78 1274.97 1584.62 1275.28C1586.83 1276.15 1586.83 1276.15 1590.14 1278C1591.14 1280.73 1591.14 1280.73 1591.14 1283C1588.49 1285.35 1585.82 1287.68 1583.14 1290C1582.61 1290.47 1582.07 1290.93 1581.52 1291.41C1579.77 1292.93 1578.02 1294.43 1576.27 1295.94C1575.69 1296.43 1575.12 1296.93 1574.53 1297.44C1570.37 1301 1570.37 1301 1568.14 1301C1568.14 1301.66 1568.14 1302.32 1568.14 1303C1566.53 1304.36 1564.85 1305.64 1563.14 1306.88C1562.02 1307.69 1560.9 1308.51 1559.79 1309.33C1558.89 1309.98 1558.89 1309.98 1557.98 1310.65C1556.16 1311.99 1554.37 1313.35 1552.59 1314.73C1541.22 1323.51 1529.26 1331.31 1517.14 1339C1516.31 1339.53 1515.47 1340.06 1514.61 1340.61C1497.25 1351.61 1479.11 1360.11 1460.14 1368C1459.47 1368.28 1458.8 1368.56 1458.1 1368.85C1431.06 1379.87 1401.95 1381.37 1373.44 1376.4C1371.44 1376.05 1369.44 1375.75 1367.44 1375.45C1341.91 1371.17 1315.69 1360.37 1294.14 1346C1294.05 1346.93 1293.95 1347.86 1293.85 1348.81C1293.1 1354.05 1291.4 1358.98 1289.77 1364C1289.46 1364.96 1289.16 1365.92 1288.84 1366.91C1287.18 1372.08 1285.33 1377.03 1283.14 1382C1282.33 1384.22 1281.54 1386.45 1280.77 1388.69C1278.84 1394.15 1276.72 1399.48 1274.46 1404.81C1272.94 1408.49 1271.53 1412.21 1270.14 1415.94C1269.76 1416.96 1269.76 1416.96 1269.37 1418.01C1268.21 1421.13 1267.05 1424.25 1265.89 1427.38C1263.42 1434 1260.62 1440.38 1257.59 1446.76C1256.11 1449.88 1254.69 1452.99 1253.52 1456.25C1251.67 1461.3 1249.41 1466.13 1247.14 1471C1247.82 1470.49 1248.5 1469.98 1249.2 1469.46C1260.54 1461.07 1272.23 1454.89 1285.01 1448.99C1286.71 1448.2 1288.39 1447.38 1290.07 1446.56C1303.88 1439.87 1319.01 1435.38 1334.14 1433C1335.2 1432.83 1336.26 1432.66 1337.35 1432.48C1341.24 1431.99 1345.05 1431.82 1348.96 1431.8C1350.06 1431.79 1350.06 1431.79 1351.18 1431.78C1367.05 1431.66 1382.54 1431.73 1398.14 1435C1399.14 1435.2 1400.13 1435.41 1401.16 1435.62C1422.09 1439.98 1442.28 1446.02 1462.27 1453.56C1464.04 1454.23 1464.04 1454.23 1465.86 1454.92C1473.78 1457.96 1481.47 1461.36 1489.14 1465C1490.08 1465.44 1491.01 1465.88 1491.98 1466.33C1513.47 1476.4 1534.13 1487.21 1554.14 1500C1553.77 1502.47 1553.51 1503.68 1551.58 1505.34C1550.91 1505.73 1550.25 1506.11 1549.56 1506.52C1548.82 1506.96 1548.08 1507.4 1547.32 1507.86C1546.52 1508.32 1545.72 1508.78 1544.89 1509.25C1543.22 1510.24 1541.56 1511.22 1539.89 1512.21C1539.07 1512.69 1538.25 1513.17 1537.41 1513.66C1534.53 1515.36 1531.71 1517.15 1528.89 1518.94C1514.48 1527.81 1499.38 1535.64 1484.14 1543C1483.45 1543.33 1482.76 1543.67 1482.05 1544.01C1472.24 1548.77 1462.35 1553.14 1452.14 1557C1451.4 1557.28 1450.65 1557.56 1449.88 1557.86C1445.05 1559.68 1440.21 1561.45 1435.35 1563.2C1433.42 1563.9 1431.5 1564.62 1429.58 1565.34C1417.62 1569.66 1405.14 1571.92 1392.7 1574.42C1390.17 1574.89 1390.17 1574.89 1388.14 1576C1385.06 1576.32 1381.98 1576.51 1378.89 1576.72C1376.18 1576.83 1376.18 1576.83 1374.14 1578C1371.58 1578.11 1369.05 1578.16 1366.49 1578.17C1365.72 1578.17 1364.96 1578.17 1364.17 1578.18C1362.53 1578.18 1360.9 1578.19 1359.27 1578.19C1356.81 1578.19 1354.35 1578.21 1351.89 1578.22C1338.88 1578.27 1327.15 1576.58 1314.64 1572.88C1313.09 1572.42 1313.09 1572.42 1311.51 1571.95C1301.45 1568.91 1291.76 1565.2 1282.14 1561C1281.41 1560.68 1280.69 1560.37 1279.94 1560.04C1259.37 1551.02 1239.51 1539.51 1223.14 1524C1220.7 1526.44 1219.65 1528.83 1218.14 1531.94C1211.82 1544.8 1205.05 1557.44 1198.14 1570C1197.2 1571.73 1196.27 1573.46 1195.33 1575.19C1189.45 1585.95 1183.46 1596.59 1176.97 1606.99C1174.75 1610.64 1172.74 1614.38 1170.73 1618.14C1167.73 1623.55 1164.42 1628.76 1161.14 1634C1164.7 1633.27 1167.77 1631.87 1171.08 1630.38C1180.52 1626.22 1190.32 1623.11 1200.14 1620C1201.15 1619.68 1201.15 1619.68 1202.17 1619.35C1217.86 1614.39 1233.08 1612.45 1249.45 1612.62C1250.67 1612.63 1250.67 1612.63 1251.91 1612.64C1277.13 1612.82 1301.17 1617.45 1324.47 1627.45C1327.69 1628.81 1330.92 1630.05 1334.19 1631.27C1341.33 1634 1348.21 1637.21 1355.08 1640.56C1355.7 1640.86 1356.32 1641.17 1356.97 1641.48C1383.73 1654.48 1408.97 1669.65 1433.14 1687C1434.25 1687.78 1434.25 1687.78 1435.38 1688.57C1438 1690.41 1440.6 1692.27 1443.2 1694.12C1444.06 1694.72 1444.92 1695.32 1445.81 1695.94C1446.61 1696.52 1447.41 1697.1 1448.24 1697.7C1449.33 1698.47 1449.33 1698.47 1450.44 1699.26C1452.55 1701.42 1452.81 1703.04 1453.14 1706C1405.22 1731.01 1353.64 1749.72 1300.14 1758C1298.9 1758.2 1298.9 1758.2 1297.63 1758.4C1276.89 1761.63 1254.64 1761.7 1234.14 1757C1233.04 1756.75 1233.04 1756.75 1231.92 1756.5C1195.67 1747.95 1163.45 1727.6 1135.14 1704C1134.4 1703.4 1133.66 1702.79 1132.9 1702.17C1131.27 1700.83 1129.7 1699.42 1128.14 1698C1128.14 1697.34 1128.14 1696.68 1128.14 1696C1127.48 1696 1126.82 1696 1126.14 1696C1124.77 1694.71 1123.43 1693.38 1122.14 1692C1121.88 1692.74 1121.61 1693.48 1121.34 1694.24C1120.15 1696.99 1118.85 1698.88 1116.95 1701.19C1114.49 1704.27 1112.13 1707.38 1109.89 1710.62C1106.36 1715.74 1102.67 1720.75 1098.96 1725.73C1096.97 1728.43 1095.12 1731.04 1093.44 1733.95C1093.01 1734.63 1092.58 1735.3 1092.14 1736C1091.48 1736 1090.82 1736 1090.14 1736C1089.9 1736.72 1089.66 1737.43 1089.41 1738.17C1087.97 1741.39 1086.18 1743.63 1083.89 1746.31C1081.28 1749.43 1078.68 1752.54 1076.27 1755.81C1069.55 1764.89 1062.44 1773.67 1055.33 1782.44C1054.8 1783.09 1054.27 1783.74 1053.73 1784.41C1050.27 1788.66 1046.73 1792.85 1043.14 1797C1043.75 1796.83 1044.36 1796.67 1044.99 1796.5C1094.96 1783.09 1142.44 1783.41 1189.14 1807C1190.2 1807.52 1190.2 1807.52 1191.27 1808.06C1219.09 1821.89 1244.59 1840.1 1268.51 1859.84C1271.12 1861.98 1273.75 1864.09 1276.39 1866.19C1284.51 1872.69 1284.51 1872.69 1288.14 1876C1288.14 1876.66 1288.14 1877.32 1288.14 1878C1288.72 1878.25 1289.3 1878.5 1289.9 1878.76C1292.42 1880.15 1294.03 1881.73 1296.02 1883.81C1298.46 1886.33 1300.89 1888.69 1303.64 1890.88C1304.47 1891.58 1305.29 1892.28 1306.14 1893C1306.14 1893.66 1306.14 1894.32 1306.14 1895C1306.76 1895.25 1307.38 1895.5 1308.02 1895.75C1310.49 1897.21 1311.09 1898.38 1312.14 1901C1312.8 1901 1313.46 1901 1314.14 1901C1314.14 1901.66 1314.14 1902.32 1314.14 1903C1314.8 1903 1315.46 1903 1316.14 1903C1316.14 1903.66 1316.14 1904.32 1316.14 1905C1317.13 1905.33 1318.12 1905.66 1319.14 1906C1319.47 1907.65 1319.8 1909.3 1320.14 1911C1318.12 1911.67 1316.09 1912.35 1314.07 1913.02C1312 1913.71 1309.93 1914.42 1307.87 1915.13C1298.92 1918.18 1289.94 1920.75 1280.77 1923.06C1279.4 1923.41 1278.04 1923.76 1276.67 1924.11C1267.19 1926.52 1257.69 1928.85 1248.14 1931C1247.51 1931.16 1246.88 1931.31 1246.23 1931.47C1238.97 1933.21 1231.6 1934.08 1224.2 1935C1222.81 1935.18 1221.42 1935.35 1220.03 1935.53C1210.07 1936.78 1200.12 1937.99 1190.14 1939C1189.12 1939.11 1188.1 1939.22 1187.05 1939.34C1130.92 1944.72 1081.69 1930.24 1038.14 1895C1034.92 1892.24 1031.81 1889.36 1028.73 1886.43C1026.62 1884.45 1024.49 1882.59 1022.27 1880.75C1012.32 1872.09 1003.47 1861.94 996.141 1851C991.348 1854.94 987.051 1859.09 982.891 1863.69C977.019 1870.07 971.001 1876.29 964.891 1882.44C964.056 1883.28 963.222 1884.13 962.362 1885C961.583 1885.79 960.803 1886.57 960 1887.37C959.304 1888.07 958.607 1888.77 957.89 1889.49C956.141 1891 956.141 1891 954.141 1891C953.756 1891.89 953.756 1891.89 953.364 1892.8C952.022 1895.21 950.695 1896.45 948.566 1898.2C943.876 1902.17 939.624 1906.49 935.328 1910.88C929.719 1916.55 924.133 1921.89 917.844 1926.8C914.462 1929.55 911.311 1932.51 908.141 1935.5C902.345 1940.96 896.365 1946.04 890.141 1951C888.132 1952.66 886.136 1954.33 884.141 1956C887.141 1955.67 890.141 1955.34 893.141 1955C893.816 1954.92 894.491 1954.85 895.187 1954.77C897.464 1954.52 899.74 1954.26 902.016 1954C902.765 1953.92 903.515 1953.83 904.287 1953.75C907.382 1953.39 910.176 1952.99 913.141 1952C914.863 1951.88 916.59 1951.82 918.317 1951.79C919.377 1951.77 920.437 1951.75 921.53 1951.73C926.469 1951.67 931.408 1951.63 936.347 1951.59C938.92 1951.57 941.493 1951.54 944.066 1951.49C967.684 1951.06 989.421 1954.46 1011.14 1964C1011.92 1964.34 1012.71 1964.68 1013.51 1965.03C1033.18 1973.69 1051.12 1984.92 1068.14 1998C1068.87 1998.55 1069.6 1999.11 1070.35 1999.68C1079.67 2006.76 1088.6 2013.99 1097.14 2022C1098.49 2023.19 1099.84 2024.38 1101.2 2025.56C1101.85 2026.13 1102.49 2026.69 1103.16 2027.27C1104.5 2028.44 1105.84 2029.6 1107.19 2030.76C1113.3 2036.13 1119.07 2041.82 1124.83 2047.56C1125.64 2048.37 1126.44 2049.17 1127.28 2050C1131.54 2054.27 1135.64 2058.61 1139.57 2063.18C1141.84 2065.81 1144.21 2068.34 1146.58 2070.88C1150.56 2075.19 1154.34 2079.58 1157.95 2084.21C1159.7 2086.44 1161.49 2088.63 1163.3 2090.82C1163.85 2091.49 1164.4 2092.16 1164.97 2092.85C1166.07 2094.18 1167.17 2095.5 1168.28 2096.82C1168.78 2097.44 1169.28 2098.05 1169.8 2098.68C1170.25 2099.22 1170.7 2099.77 1171.17 2100.33C1172.14 2102 1172.14 2102 1172.14 2106C1144.91 2111.63 1117.87 2116.89 1090.07 2118.77C1088.4 2118.9 1086.74 2119.05 1085.09 2119.24C1077.66 2120.09 1070.29 2120.18 1062.82 2120.2C1062.15 2120.21 1061.47 2120.21 1060.77 2120.21C1057.18 2120.23 1053.58 2120.24 1049.99 2120.24C1047.07 2120.24 1044.16 2120.26 1041.25 2120.28C982 2120.74 932.589 2107.87 887.636 2068.31C886.267 2067.11 884.881 2065.94 883.492 2064.76C882.39 2063.83 882.39 2063.83 881.266 2062.88C880.649 2062.36 880.033 2061.84 879.398 2061.3C878.141 2060 878.141 2060 878.141 2058C877.481 2058 876.821 2058 876.141 2058C874.801 2056.67 874.801 2056.67 873.203 2054.75C870.6 2051.68 867.934 2048.69 865.175 2045.76C833.141 2011.54 833.141 2011.54 833.141 1997C832.659 1997.36 832.178 1997.71 831.682 1998.08C812.79 2012.05 793.866 2025.94 774.277 2038.92C772.087 2040.37 769.902 2041.83 767.723 2043.3C744.731 2058.77 720.953 2074.59 696.141 2087C697.384 2087.16 698.628 2087.32 699.91 2087.49C704.61 2088.1 709.308 2088.72 714.006 2089.34C716.023 2089.61 718.041 2089.87 720.059 2090.13C756.171 2094.8 790.117 2104.2 819.141 2127C819.908 2127.57 820.675 2128.15 821.465 2128.74C835.226 2139.09 848.158 2151.76 859.141 2165C859.59 2165.54 860.039 2166.07 860.502 2166.62C868.475 2176.15 875.846 2185.97 882.889 2196.19C884.463 2198.46 886.086 2200.7 887.703 2202.94C892.421 2209.68 896.573 2216.8 900.826 2223.84C901.993 2225.76 903.178 2227.66 904.379 2229.56C908.485 2236.07 912.059 2242.68 915.426 2249.61C917.037 2252.79 918.786 2255.82 920.641 2258.88C924.092 2264.68 926.736 2270.68 929.371 2276.88C931.143 2281.04 933.03 2285.15 934.953 2289.25C935.243 2289.87 935.533 2290.49 935.832 2291.13C936.955 2293.52 938.082 2295.89 939.332 2298.22C940.51 2300.81 940.268 2303.19 940.141 2306C901.511 2306.48 861.46 2300.81 824.141 2291C822.214 2290.53 820.287 2290.07 818.359 2289.6C775.1 2279.1 733.697 2261.99 701.141 2231C700.495 2230.41 699.849 2229.81 699.184 2229.2C693.957 2224.26 689.711 2218.5 685.435 2212.74C684.592 2211.61 683.745 2210.48 682.894 2209.35C671.856 2194.69 662.871 2178.62 655.141 2162C654.772 2161.21 654.403 2160.42 654.023 2159.6C648.354 2147.29 644.033 2134.95 640.662 2121.82C640.179 2119.92 640.179 2119.92 639.141 2118C638.276 2118.44 637.411 2118.88 636.52 2119.33C601.019 2137.24 564.765 2153.36 527.779 2167.95C525.464 2168.87 523.154 2169.8 520.848 2170.74C513.369 2173.79 505.822 2176.58 498.195 2179.23C494.253 2180.6 490.325 2182.01 486.398 2183.43C474.052 2187.88 461.731 2192.29 449.141 2196C449.736 2196.05 450.331 2196.11 450.944 2196.16C481.995 2199.13 514.239 2205.58 542.141 2220C543.11 2220.49 544.079 2220.98 545.078 2221.49C561.178 2229.95 575.417 2241.15 588.604 2253.57C590.238 2255.09 591.895 2256.58 593.559 2258.07C594.116 2258.57 594.673 2259.07 595.248 2259.59C596.323 2260.55 597.402 2261.51 598.485 2262.47C599.741 2263.61 600.946 2264.8 602.141 2266C602.141 2266.66 602.141 2267.32 602.141 2268C602.801 2268 603.461 2268 604.141 2268C605.445 2269.26 605.445 2269.26 607.016 2271.12C607.638 2271.86 608.261 2272.59 608.902 2273.35C609.641 2274.23 610.38 2275.1 611.141 2276C612.041 2277.03 612.944 2278.06 613.848 2279.09C621.415 2287.73 628.378 2296.72 635.141 2306C635.81 2306.91 635.81 2306.91 636.493 2307.84C642.718 2316.35 648.537 2325.07 654.141 2334C654.548 2334.65 654.956 2335.3 655.375 2335.96C657.913 2340 660.437 2344.04 662.952 2348.09C664.078 2349.9 665.209 2351.71 666.34 2353.52C670.516 2360.23 674.422 2367.02 678.141 2374C678.722 2375.05 679.303 2376.1 679.902 2377.18C685.818 2387.91 690.823 2399.04 695.867 2410.2C698.131 2415.18 700.466 2420.13 702.801 2425.07C703.243 2426.04 703.685 2427.01 704.141 2428C704.531 2428.85 704.922 2429.7 705.324 2430.58C706.21 2433.21 706.2 2435.25 706.141 2438C694.67 2438.16 683.378 2437.76 671.953 2436.75C671.182 2436.68 670.411 2436.62 669.617 2436.55C596.76 2430.25 516.772 2415.14 457.141 2370C455.876 2369.07 455.876 2369.07 454.586 2368.12C442.184 2358.69 431.616 2347.07 422.348 2334.6C421.234 2333.12 420.08 2331.68 418.922 2330.23C394.109 2298.81 375.892 2258.38 369.141 2219C368.388 2219.19 367.635 2219.37 366.859 2219.56C345.901 2224.72 324.905 2229.44 303.668 2233.32C300.257 2233.98 296.893 2234.75 293.516 2235.56C289.2 2236.59 284.933 2237.36 280.535 2237.94C274.896 2238.72 269.319 2239.68 263.728 2240.75C249.623 2243.44 235.526 2245.25 221.253 2246.74C220.52 2246.82 219.786 2246.9 219.031 2246.98C217.029 2247.19 215.026 2247.39 213.023 2247.6C210.25 2247.69 210.25 2247.69 209.141 2249C210.28 2249.28 211.42 2249.56 212.594 2249.85C236.235 2255.78 258.827 2264.16 280.141 2276C281.116 2276.51 282.092 2277.03 283.098 2277.56C295.305 2284 305.797 2291.96 316.141 2301C316.917 2301.65 317.693 2302.3 318.492 2302.98C322.495 2306.36 326.012 2309.94 329.398 2313.94C331.817 2316.8 334.341 2319.56 336.855 2322.34C338.141 2324 338.141 2324 338.141 2326C338.801 2326 339.461 2326 340.141 2326C341.733 2327.99 343.195 2329.97 344.641 2332.06C345.081 2332.69 345.522 2333.32 345.976 2333.97C358.676 2352.17 370.325 2370.68 379.745 2390.81C382.042 2395.71 384.419 2400.56 386.891 2405.38C390.109 2411.77 392.69 2418.28 395.141 2425C395.916 2427.09 396.695 2429.18 397.476 2431.26C397.986 2432.63 398.494 2433.99 398.998 2435.36C400.099 2438.32 401.244 2441.23 402.527 2444.12C405.004 2449.83 406.867 2455.78 408.828 2461.69C409.047 2462.34 409.265 2463 409.49 2463.68C415.657 2482.26 421.028 2501.05 425.703 2520.06C425.967 2521.12 426.231 2522.18 426.503 2523.27C426.735 2524.25 426.968 2525.22 427.207 2526.22C427.413 2527.08 427.618 2527.93 427.83 2528.81C428.141 2531 428.141 2531 427.141 2534C420.699 2534.37 414.995 2532.99 408.766 2531.44C407.672 2531.17 406.579 2530.9 405.452 2530.62C360.101 2519.34 315.614 2503.69 274.141 2482C273.102 2481.47 272.063 2480.93 270.992 2480.38C255.716 2472.36 240.894 2463.43 227.141 2453C226.561 2452.56 225.982 2452.13 225.385 2451.68C216.869 2445.23 208.868 2438.37 201.141 2431C199.863 2429.8 199.863 2429.8 198.559 2428.58C187.335 2417.76 178.812 2405.61 171.271 2392.03C170.256 2390.21 169.21 2388.4 168.16 2386.61C157.706 2368.09 149.89 2347.43 144.141 2327C143.777 2325.76 143.414 2324.52 143.039 2323.25C140.981 2315.96 139.393 2308.62 137.953 2301.19C137.786 2300.33 137.619 2299.47 137.447 2298.58C135.538 2288.36 134.979 2278.4 135.016 2268C135.012 2266.87 135.008 2265.74 135.004 2264.57C135.006 2262.96 135.006 2262.96 135.008 2261.31C135.009 2260.34 135.01 2259.37 135.011 2258.36C135.141 2256 135.141 2256 136.141 2254C135.351 2254.14 134.561 2254.28 133.748 2254.42C125.893 2255.73 118.268 2256.34 110.312 2256.45C109.108 2256.47 107.903 2256.49 106.662 2256.52C103.412 2256.57 100.161 2256.62 96.91 2256.66C94.8783 2256.69 92.8467 2256.72 90.815 2256.75C70.2106 2257.05 49.6198 2257.01 29.0156 2256.69C27.7781 2256.67 26.5405 2256.65 25.2655 2256.64C21.7835 2256.59 18.302 2256.52 14.8203 2256.45C13.7909 2256.43 12.7615 2256.42 11.7009 2256.4C10.7579 2256.38 9.81488 2256.36 8.84326 2256.33C8.02655 2256.32 7.20987 2256.3 6.36841 2256.29C3.9268 2255.97 2.26355 2255.22 0.140625 2254C-0.046875 2251.62 -0.046875 2251.62 0.140625 2249C3.16288 2246.99 3.89333 2246.74 7.30859 2246.62C8.52579 2246.57 8.52579 2246.57 9.76758 2246.52C10.6126 2246.49 11.4575 2246.46 12.3281 2246.44C17.5669 2246.25 22.7033 2245.97 27.9041 2245.27C32.9427 2244.67 38.017 2244.41 43.0781 2244.06C67.1113 2242.38 91.0713 2240.69 114.888 2236.97C120.039 2236.19 124.93 2235.87 130.141 2236C129.725 2234.44 129.725 2234.44 129.301 2232.85C128.935 2231.44 128.569 2230.03 128.203 2228.62C128.021 2227.95 127.838 2227.27 127.65 2226.57C124.885 2215.81 124.954 2204.98 124.955 2193.94C124.953 2191.47 124.935 2188.99 124.916 2186.51C124.878 2175.86 125.664 2165.55 127.141 2155C127.313 2153.63 127.313 2153.63 127.49 2152.23C130.904 2125.22 139.943 2100.18 156.383 2078.36C157.855 2076.38 159.205 2074.39 160.516 2072.31C161.32 2071.17 161.32 2071.17 162.141 2070C162.801 2070 163.461 2070 164.141 2070C164.377 2069.45 164.612 2068.89 164.855 2068.32C166.453 2065.44 168.459 2063.29 170.703 2060.88C173.778 2057.68 173.778 2057.68 176.141 2054C176.801 2054 177.461 2054 178.141 2054C178.141 2053.34 178.141 2052.68 178.141 2052C178.801 2052 179.461 2052 180.141 2052C180.388 2051.38 180.636 2050.76 180.891 2050.12C182.378 2047.6 183.577 2047.28 186.141 2046C186.445 2045.38 186.749 2044.76 187.062 2044.12C188.249 2041.79 189.387 2040.67 191.391 2039C192.46 2038.1 192.46 2038.1 193.551 2037.18C194.833 2036.1 194.833 2036.1 196.141 2035C197.203 2034.08 198.264 2033.16 199.324 2032.23C207.042 2025.51 214.927 2019.1 223.141 2013C223.79 2012.51 224.438 2012.03 225.107 2011.53C245.619 1996.24 267.467 1983.06 289.766 1970.56C290.5 1970.15 291.235 1969.74 291.991 1969.31C303.353 1963 303.353 1963 308.141 1963C308.813 1978.2 309.381 1993.35 308.766 2008.56C308.701 2010.16 308.701 2010.16 308.635 2011.8C308.407 2016.62 307.988 2021.25 307.141 2026C307.015 2028.19 306.914 2030.37 306.828 2032.56C305.792 2052.2 302.367 2071.82 298.141 2091C297.971 2091.79 297.8 2092.58 297.625 2093.4C297.454 2094.19 297.282 2094.98 297.105 2095.8C296.952 2096.51 296.799 2097.22 296.64 2097.95C295.951 2100.78 295.005 2103.49 294.047 2106.24C293.102 2109.12 292.273 2112.02 291.451 2114.93C288.907 2123.89 285.868 2132.46 282.141 2141C281.848 2141.68 281.556 2142.35 281.254 2143.05C273.874 2159.9 264.653 2174.5 252.141 2188C251.318 2188.89 250.496 2189.79 249.648 2190.71C243.586 2197.02 236.891 2202.34 229.943 2207.62C228.138 2209 226.35 2210.4 224.566 2211.81C223.425 2212.71 222.283 2213.6 221.141 2214.5C220.13 2215.29 219.119 2216.09 218.078 2216.91C215.202 2218.96 212.34 2220.51 209.141 2222C225.689 2219.4 242.089 2216.07 258.453 2212.5C259.445 2212.28 259.445 2212.28 260.456 2212.07C270.402 2209.9 280.28 2207.52 290.141 2205C290.859 2204.82 291.577 2204.63 292.317 2204.44C297.721 2203.06 303.12 2201.66 308.516 2200.25C309.335 2200.04 310.155 2199.82 310.999 2199.6C324.722 2196 338.292 2192.07 351.789 2187.69C354.223 2186.98 356.648 2186.46 359.141 2186C358.506 2183.17 357.633 2180.66 356.434 2178.02C356.094 2177.27 355.754 2176.52 355.404 2175.74C355.049 2174.96 354.694 2174.18 354.328 2173.38C349.978 2163.79 346.001 2154.27 343.141 2144.12C342.886 2143.23 342.631 2142.33 342.368 2141.4C339.779 2132.04 337.755 2122.58 336.141 2113C335.963 2111.99 335.785 2110.97 335.601 2109.93C334.032 2100.2 333.739 2090.64 333.766 2080.81C333.767 2079.99 333.768 2079.18 333.769 2078.33C333.818 2066.1 334.427 2054.73 338.141 2043C338.42 2042.08 338.699 2041.15 338.986 2040.2C344.132 2023.27 350.273 2006.86 359.5 1991.71C361.104 1989.06 362.567 1986.37 364.016 1983.62C372.996 1967.06 384.207 1951.42 395.855 1936.64C397.211 1934.91 398.554 1933.17 399.895 1931.43C404.737 1925.18 409.694 1919.15 415.066 1913.33C417.819 1910.24 420.285 1906.96 422.73 1903.62C423.196 1903.08 423.661 1902.55 424.141 1902C424.801 1902 425.461 1902 426.141 1902C426.384 1901.43 426.627 1900.87 426.877 1900.28C429.469 1895.6 433.751 1892.06 437.516 1888.31C438.379 1887.43 439.243 1886.55 440.133 1885.65C440.968 1884.81 441.803 1883.97 442.664 1883.11C443.808 1881.97 443.808 1881.97 444.974 1880.79C447.125 1879.01 448.412 1878.39 451.141 1878C471.559 1923.26 480.457 1977.82 481.141 2027C481.156 2027.79 481.171 2028.59 481.187 2029.41C481.269 2033.94 481.248 2038.46 481.141 2043C481.112 2044.23 481.084 2045.45 481.055 2046.71C479.952 2072.57 473.969 2101.23 458.276 2122.43C456.86 2124.39 455.706 2126.43 454.578 2128.56C452.599 2132.2 450.612 2135.68 448.141 2139C447.481 2139 446.821 2139 446.141 2139C445.925 2139.69 445.71 2140.37 445.488 2141.08C443.746 2144.86 441.315 2147.59 438.578 2150.69C434.991 2154.59 434.991 2154.59 432.141 2159C431.481 2159 430.821 2159 430.141 2159C430.141 2159.99 430.141 2160.98 430.141 2162C431.881 2161.31 431.881 2161.31 433.656 2160.61C435.234 2159.99 436.812 2159.37 438.391 2158.75C439.149 2158.45 439.907 2158.15 440.688 2157.84C445.056 2156.13 449.44 2154.56 453.902 2153.11C460.63 2150.89 467.157 2148.26 473.703 2145.56C474.845 2145.1 475.986 2144.63 477.162 2144.15C482.473 2141.98 487.743 2139.75 492.957 2137.35C496.707 2135.63 500.471 2134.07 504.338 2132.63C517.09 2127.84 529.222 2121.74 541.416 2115.7C549.861 2111.52 558.351 2107.53 566.98 2103.74C572.364 2101.37 577.602 2098.82 582.766 2096C584.34 2095.15 585.916 2094.31 587.492 2093.46C588.645 2092.85 588.645 2092.85 589.821 2092.22C594.214 2089.91 598.678 2087.74 603.155 2085.6C606.278 2084.08 608.897 2082.7 611.141 2080C610.763 2079.62 610.385 2079.24 609.996 2078.85C588.786 2056.15 575.205 2023.66 567.636 1993.9C566.972 1991.35 566.205 1988.84 565.453 1986.31C558.229 1959.18 561.391 1927.36 570.478 1901C571.255 1898.65 571.775 1896.3 572.266 1893.88C574.536 1884.47 578.498 1875.57 582.1 1866.62C583.375 1863.41 584.572 1860.18 585.766 1856.94C588.166 1850.68 591.151 1844.75 594.221 1838.8C595.421 1836.45 596.567 1834.07 597.721 1831.69C608.399 1809.86 620.545 1788.67 634.801 1768.98C636.206 1767.05 636.206 1767.05 637.012 1764.86C638.568 1762.29 640.345 1761.88 643.141 1761C647.732 1767.84 651.657 1774.8 655.258 1782.21C656.91 1785.58 658.685 1788.88 660.482 1792.18C665.07 1800.63 668.842 1809.22 672.388 1818.15C673.417 1820.68 674.55 1823.15 675.703 1825.62C686.849 1849.91 694.77 1875.85 700.391 1901.94C700.542 1902.63 700.693 1903.33 700.849 1904.05C703.558 1917.24 704.514 1930.18 704.511 1943.6C704.516 1946.23 704.552 1948.86 704.59 1951.49C704.691 1966.69 702.276 1981.2 697.203 1995.56C696.95 1996.3 696.697 1997.04 696.436 1997.8C694.714 2002.71 692.679 2007.35 690.211 2011.93C688.929 2014.41 688.077 2016.99 687.145 2019.61C683.313 2028.73 677.952 2037.36 673.141 2046C687.204 2037.62 700.971 2028.89 714.551 2019.75C719.314 2016.54 724.118 2013.41 728.953 2010.31C741.657 2002.14 754.146 1993.71 766.039 1984.39C771.028 1980.54 776.179 1976.93 781.326 1973.29C783.236 1971.93 785.135 1970.56 787.031 1969.18C787.667 1968.72 788.302 1968.26 788.957 1967.79C790.177 1966.91 791.395 1966.02 792.611 1965.13C795.12 1963.33 797.185 1961.99 800.141 1961C799.584 1960.32 799.027 1959.64 798.453 1958.95C796.845 1956.98 795.24 1955.02 793.637 1953.05C792.137 1951.22 790.631 1949.39 789.113 1947.57C775.087 1930.53 764.595 1911.31 756.141 1891C755.729 1890.03 755.318 1889.05 754.895 1888.05C748.767 1872.48 747.454 1856.93 747.641 1840.38C747.646 1839.41 747.652 1838.44 747.657 1837.45C747.757 1822.6 748.611 1808.47 752.141 1794C752.355 1793.07 752.569 1792.14 752.79 1791.19C757.331 1771.66 763.539 1752.4 771.333 1733.92C772.249 1731.74 773.146 1729.55 774.043 1727.36C778.03 1717.68 782.345 1708.31 787.141 1699C788.071 1697.14 788.994 1695.27 789.917 1693.4C792.508 1688.17 795.154 1683.02 798.141 1678C800.864 1678.03 802.591 1678.45 804.546 1680.4C806.137 1682.43 807.617 1684.5 809.078 1686.62C809.637 1687.42 810.197 1688.21 810.773 1689.03C817.129 1698.19 822.87 1707.74 828.551 1717.33C829.968 1719.71 831.407 1722.07 832.859 1724.43C855.463 1761.44 874.645 1806.69 874.516 1850.62C874.515 1851.68 874.515 1851.68 874.514 1852.75C874.473 1864.24 873.48 1874.97 870.141 1886C869.755 1887.27 869.755 1887.27 869.362 1888.58C868.065 1892.81 866.718 1897.02 865.312 1901.22C863.993 1904.82 863.993 1904.82 864.141 1908C864.951 1907.24 865.762 1906.48 866.598 1905.69C885.743 1887.8 885.743 1887.8 891.141 1886C891.471 1885.01 891.801 1884.02 892.141 1883C892.801 1883 893.461 1883 894.141 1883C894.141 1882.34 894.141 1881.68 894.141 1881C895.75 1879.41 895.75 1879.41 897.891 1877.62C900.21 1875.66 902.393 1873.74 904.516 1871.56C906.141 1870 906.141 1870 908.141 1870C908.141 1869.34 908.141 1868.68 908.141 1868C908.801 1868 909.461 1868 910.141 1868C910.141 1867.34 910.141 1866.68 910.141 1866C911.75 1864.41 911.75 1864.41 913.891 1862.62C916.21 1860.66 918.393 1858.74 920.516 1856.56C922.141 1855 922.141 1855 924.141 1855C924.141 1854.34 924.141 1853.68 924.141 1853C924.801 1853 925.461 1853 926.141 1853C926.141 1852.34 926.141 1851.68 926.141 1851C927.398 1849.76 927.398 1849.76 929.266 1848.25C935.932 1842.58 941.98 1836.27 948.141 1830.06C949.405 1828.79 950.669 1827.52 951.934 1826.26C955.005 1823.17 958.074 1820.09 961.141 1817C957.965 1813.57 957.965 1813.57 954.141 1811C954.141 1810.34 954.141 1809.68 954.141 1809C953.481 1809 952.821 1809 952.141 1809C952.141 1808.34 952.141 1807.68 952.141 1807C951.541 1806.73 950.942 1806.47 950.324 1806.2C946.387 1804.04 943.974 1800.42 941.141 1797C940.179 1795.88 939.217 1794.77 938.254 1793.65C919.898 1772.07 904.806 1745.68 898.141 1718C897.961 1717.29 897.782 1716.58 897.597 1715.86C895.434 1706.04 895.747 1696 895.766 1686C895.766 1685.02 895.765 1684.05 895.765 1683.04C895.793 1667.03 896.894 1651.72 900.141 1636C900.317 1635.11 900.493 1634.21 900.674 1633.29C902.163 1625.79 903.804 1618.4 906.426 1611.2C907.362 1608.32 907.988 1605.4 908.641 1602.44C909.58 1598.23 910.649 1594.32 912.266 1590.34C913.505 1587.03 914.491 1583.64 915.516 1580.25C917.329 1574.32 919.419 1568.63 921.891 1562.93C923.235 1559.78 924.441 1556.59 925.641 1553.38C927.498 1548.49 929.596 1543.84 932.027 1539.22C933.211 1536.86 934.191 1534.46 935.141 1532C937.477 1531.8 937.477 1531.8 940.141 1532C941.555 1533.26 941.555 1533.26 942.766 1535.12C945.473 1539.07 948.347 1542.83 951.328 1546.56C967.826 1567.5 982.298 1589.64 995.141 1613C995.571 1613.78 996.002 1614.55 996.446 1615.35C1000.9 1623.41 1004.91 1631.37 1008.04 1640.05C1009.07 1642.82 1010.27 1645.41 1011.58 1648.06C1017.83 1661.61 1020.93 1676.33 1023.14 1691C1023.33 1691.91 1023.51 1692.81 1023.71 1693.75C1024.37 1698.72 1024.28 1703.67 1024.27 1708.69C1024.27 1709.73 1024.27 1710.78 1024.28 1711.85C1024.28 1712.85 1024.27 1713.86 1024.27 1714.89C1024.27 1716.25 1024.27 1716.25 1024.27 1717.64C1024.14 1720 1024.14 1720 1023.14 1723C1023.01 1724.54 1022.91 1726.08 1022.83 1727.62C1022.34 1733.67 1020.99 1739.39 1019.51 1745.25C1018.76 1748.25 1018.14 1750.9 1018.14 1754C1024.91 1746.85 1031.23 1739.5 1037.26 1731.7C1040.32 1727.75 1043.48 1723.87 1046.64 1720C1058.78 1705.11 1070.5 1689.92 1081.7 1674.31C1082.11 1673.75 1082.51 1673.18 1082.93 1672.6C1085.15 1669.48 1087.22 1666.31 1089.14 1663C1088.5 1662.62 1087.85 1662.24 1087.19 1661.86C1080.18 1657.58 1074.07 1652.74 1067.89 1647.36C1065.19 1644.94 1065.19 1644.94 1062.14 1643C1062.14 1642.34 1062.14 1641.68 1062.14 1641C1061.48 1641 1060.82 1641 1060.14 1641C1060.14 1640.34 1060.14 1639.68 1060.14 1639C1059.55 1638.74 1058.95 1638.48 1058.34 1638.22C1055.95 1636.89 1054.69 1635.6 1052.95 1633.5C1051.05 1631.23 1049.14 1629 1047.11 1626.85C1013.75 1591.5 1008.01 1549.01 1009.21 1502.27C1009.4 1496.84 1009.72 1491.42 1010.14 1486C1010.19 1485.33 1010.24 1484.67 1010.29 1483.98C1012.03 1461.53 1016.45 1438.48 1023.14 1417C1023.82 1414.67 1024.48 1412.34 1025.14 1410C1027.19 1409.1 1027.19 1409.1 1030.14 1409C1032.9 1410.75 1035.09 1413.07 1037.39 1415.38C1038.11 1416.07 1038.83 1416.77 1039.57 1417.49C1041.19 1419.08 1042.8 1420.68 1044.41 1422.28C1046.88 1424.74 1049.36 1427.19 1051.85 1429.63C1054.07 1431.81 1056.28 1433.99 1058.49 1436.18C1059.58 1437.25 1060.66 1438.33 1061.75 1439.4C1067.96 1445.53 1073.78 1451.77 1079.23 1458.61C1080.77 1460.54 1082.33 1462.41 1083.97 1464.25C1091.31 1472.58 1097.54 1481.52 1103.66 1490.77C1104.96 1492.73 1106.28 1494.66 1107.61 1496.59C1125.37 1522.93 1133.37 1550.22 1133.2 1581.62C1133.2 1583.31 1133.19 1585 1133.19 1586.69C1133.18 1590.79 1133.16 1594.9 1133.14 1599C1133.47 1598.01 1133.8 1597.02 1134.14 1596C1134.8 1596 1135.46 1596 1136.14 1596C1136.26 1595.43 1136.37 1594.86 1136.49 1594.27C1137.21 1591.77 1138.23 1589.91 1139.58 1587.69C1140.08 1586.87 1140.58 1586.05 1141.09 1585.2C1141.62 1584.33 1142.15 1583.46 1142.7 1582.56C1143.25 1581.67 1143.79 1580.77 1144.35 1579.85C1147.38 1574.86 1150.44 1569.9 1153.52 1564.94C1156.42 1560.25 1159.11 1555.48 1161.71 1550.61C1163.12 1548.03 1164.61 1545.51 1166.14 1543C1170.16 1536.37 1173.8 1529.55 1177.41 1522.7C1177.81 1521.94 1178.21 1521.19 1178.62 1520.41C1179.41 1518.92 1180.2 1517.42 1180.98 1515.93C1182.56 1512.93 1184.14 1510 1185.91 1507.12C1187.31 1505.12 1187.31 1505.12 1187.14 1503C1186.6 1502.8 1186.07 1502.61 1185.52 1502.41C1148.73 1488.37 1112 1462.29 1095.14 1426C1094.29 1424.37 1093.44 1422.75 1092.58 1421.12C1072.52 1380.93 1069.16 1332.46 1069.02 1288.31C1069.01 1287.35 1069.01 1286.39 1069 1285.4C1069 1284.05 1069 1284.05 1069.01 1282.68C1069.01 1281.5 1069.01 1281.5 1069.01 1280.3C1069.15 1277.79 1069.6 1275.45 1070.14 1273C1076.71 1273.41 1081.4 1275.92 1087.08 1279.12C1088.03 1279.65 1088.98 1280.18 1089.96 1280.73C1106.68 1290.13 1122.97 1300.25 1138.14 1312C1138.72 1312.45 1139.31 1312.9 1139.91 1313.36C1144.03 1316.52 1148.1 1319.74 1152.14 1323C1153.16 1323.81 1154.19 1324.63 1155.24 1325.47C1162.17 1331.15 1168.6 1337.25 1174.95 1343.56C1175.74 1344.34 1176.53 1345.12 1177.34 1345.92C1182.7 1351.31 1187.53 1356.97 1192.14 1363C1192.8 1363.87 1192.8 1363.87 1193.48 1364.75C1204.59 1379.58 1211.69 1396.09 1216.14 1414C1216.37 1414.87 1216.6 1415.74 1216.84 1416.63C1218.68 1424.33 1218.32 1432.14 1218.14 1440C1218.8 1440 1219.46 1440 1220.14 1440C1220.24 1439.34 1220.35 1438.68 1220.45 1438C1221.71 1432.51 1223.89 1427.48 1226.28 1422.41C1230.08 1414.1 1233.32 1405.57 1236.64 1397.06C1237.94 1393.74 1239.24 1390.42 1240.55 1387.1C1241.02 1385.9 1241.02 1385.9 1241.49 1384.68C1243.63 1379.26 1245.84 1373.87 1248.1 1368.49C1252.67 1357.53 1256.46 1346.28 1260.14 1335C1260.81 1333 1261.47 1331 1262.14 1329C1261.28 1328.85 1260.42 1328.71 1259.53 1328.55C1220.97 1321.47 1180.53 1302.19 1157.66 1269.29C1156.47 1267.53 1155.3 1265.77 1154.14 1264C1153.77 1263.44 1153.41 1262.88 1153.03 1262.31C1146.22 1251.8 1140.7 1240.98 1136.35 1229.24C1135.59 1227.2 1134.8 1225.18 1133.96 1223.17C1129.67 1212.71 1126.92 1201.81 1123.96 1190.92C1123.2 1188.2 1122.38 1185.49 1121.55 1182.79C1120.18 1178.27 1119.11 1173.75 1118.2 1169.12C1117.96 1167.89 1117.96 1167.89 1117.71 1166.62C1116.21 1158.8 1115.03 1150.94 1113.89 1143.06C1113.63 1141.24 1113.63 1141.24 1113.36 1139.38C1112.68 1134.55 1112.04 1129.89 1112.14 1125C1117.82 1124.53 1122.13 1126.18 1127.33 1128.19C1128.12 1128.48 1128.9 1128.77 1129.71 1129.07C1135.02 1131.07 1140.17 1133.33 1145.32 1135.7C1148.15 1137 1150.99 1138.28 1153.83 1139.54C1184.15 1153.15 1213.1 1169.8 1237.14 1193C1238.08 1193.87 1239.01 1194.74 1239.97 1195.64C1263.55 1218.2 1272.81 1247.74 1279.14 1279C1279.3 1278.24 1279.46 1277.47 1279.62 1276.68C1281.12 1269.79 1283.01 1263.18 1285.3 1256.52C1287.27 1250.75 1288.74 1244.93 1290.14 1239C1290.62 1237.11 1291.09 1235.22 1291.57 1233.33C1293.18 1226.96 1294.72 1220.58 1296.2 1214.19C1297.48 1208.72 1298.84 1203.29 1300.36 1197.88C1301.35 1194.22 1302.28 1190.55 1303.2 1186.88C1303.37 1186.23 1303.53 1185.58 1303.7 1184.92C1304.19 1182.95 1304.67 1180.98 1305.14 1179C1305.31 1178.3 1305.48 1177.6 1305.65 1176.87C1307.19 1170.22 1308.15 1163.52 1309.08 1156.76C1309.27 1155.47 1309.27 1155.47 1309.46 1154.16C1309.56 1153.38 1309.67 1152.61 1309.78 1151.81C1310.14 1150 1310.14 1150 1311.14 1149C1310.55 1148.96 1309.96 1148.92 1309.36 1148.88C1297.99 1148.08 1287.07 1147.16 1276.17 1143.65C1273.86 1142.91 1271.54 1142.21 1269.22 1141.5C1231.18 1129.62 1202.38 1108.59 1182.14 1074C1181.19 1072.42 1181.19 1072.42 1180.22 1070.81C1172.21 1057.24 1165.58 1042.92 1159.7 1028.31C1159.39 1027.52 1159.07 1026.74 1158.74 1025.92C1156.85 1021.11 1155.27 1016.27 1153.83 1011.31C1152.93 1008.29 1151.88 1005.34 1150.83 1002.38C1148.5 995.546 1146.62 988.611 1144.83 981.625C1144.56 980.615 1144.29 979.605 1144.02 978.564C1142.51 972.533 1141.86 967.216 1142.14 961C1148.96 961.599 1155.34 962.868 1161.95 964.625C1162.95 964.888 1163.95 965.151 1164.98 965.422C1174.14 967.893 1183.04 970.925 1191.94 974.199C1193.97 974.937 1196 975.647 1198.04 976.344C1204.78 978.665 1211.25 981.286 1217.69 984.355C1220.13 985.517 1222.56 986.642 1225.03 987.738C1246.86 997.539 1266.91 1010.4 1284.14 1027C1285 1027.79 1285.87 1028.58 1286.76 1029.39C1302.12 1043.85 1310.96 1063.17 1317.14 1083C1318.1 1085.68 1319.12 1088.34 1320.14 1091C1320.47 1091.99 1320.8 1092.98 1321.14 1094C1321.2 1092.69 1321.2 1092.69 1321.25 1091.35C1321.68 1083.44 1322.53 1075.76 1323.95 1067.96C1326.37 1054.54 1327.65 1041.07 1328.7 1027.5C1328.89 1025.1 1329.08 1022.71 1329.27 1020.31C1329.39 1018.84 1329.51 1017.37 1329.62 1015.9C1329.97 1011.57 1330.52 1007.3 1331.14 1003C1331.33 1000.92 1331.49 998.843 1331.64 996.762C1331.72 995.611 1331.81 994.461 1331.89 993.275C1331.97 992.091 1332.06 990.907 1332.14 989.688C1332.7 981.778 1333.29 973.884 1334.14 966C1333.24 966.023 1332.35 966.046 1331.42 966.07C1291.59 966.646 1249.79 952.901 1220.92 925.06C1214.27 918.522 1208.4 911.712 1203.14 904C1202.67 903.314 1202.2 902.627 1201.71 901.92C1185.1 877.658 1172.16 851.639 1162.14 824C1161.75 822.935 1161.75 822.935 1161.35 821.848C1152.14 796.578 1152.14 796.578 1152.14 790C1158.99 789.713 1165.2 790.786 1171.89 792.188C1173 792.416 1174.1 792.644 1175.24 792.88C1178.55 793.572 1181.84 794.281 1185.14 795C1186.02 795.192 1186.91 795.384 1187.82 795.583C1214.78 801.582 1241.77 810.926 1266.14 824C1266.75 824.326 1267.36 824.652 1267.98 824.988C1293.17 838.639 1314.3 857.168 1327.89 882.625C1328.27 883.329 1328.64 884.034 1329.03 884.76C1329.57 885.795 1329.57 885.795 1330.12 886.852C1330.44 887.458 1330.76 888.065 1331.08 888.69C1332.63 892.06 1333.86 895.522 1335.14 899C1335.47 863.18 1334.8 827.463 1331.66 791.761C1331.58 790.779 1331.5 789.797 1331.41 788.785C1331.33 787.949 1331.26 787.112 1331.18 786.25C1331.14 783.973 1331.48 782.171 1332.14 780C1331.25 780.266 1330.35 780.531 1329.43 780.805C1328.22 781.158 1327.01 781.511 1325.77 781.875C1324.58 782.223 1323.4 782.571 1322.18 782.93C1313.92 785.191 1306.09 786.303 1297.52 786.266C1296.55 786.268 1295.57 786.269 1294.56 786.271C1292.5 786.273 1290.45 786.269 1288.39 786.261C1285.28 786.25 1282.17 786.261 1279.06 786.273C1269.25 786.28 1259.75 786.213 1250.14 784C1249.12 783.788 1248.1 783.576 1247.05 783.358C1229.38 779.588 1213.08 769.174 1199.14 758C1198.15 757.214 1197.16 756.427 1196.14 755.617C1180.6 743.025 1166.98 728.241 1154.33 712.812C1153.76 712.127 1153.18 711.442 1152.6 710.736C1149.78 707.302 1147.46 704.318 1146.14 700C1145.48 700 1144.82 700 1144.14 700C1142.67 698.109 1141.33 696.227 1140.01 694.234C1139.41 693.35 1139.41 693.35 1138.81 692.447C1137.97 691.195 1137.13 689.941 1136.3 688.684C1135.03 686.764 1133.73 684.857 1132.44 682.949C1131.63 681.732 1130.82 680.515 1130.01 679.297C1129.62 678.727 1129.23 678.157 1128.83 677.57C1126.7 674.317 1126.14 673.029 1126.14 669C1167.14 664.945 1209.15 663.288 1249.14 675C1250.99 675.539 1250.99 675.539 1252.87 676.09C1272.72 682.296 1288.18 692.723 1303.14 707C1304.29 708.083 1304.29 708.083 1305.45 709.188C1308.99 712.61 1308.99 712.61 1310.14 714C1310.14 714.66 1310.14 715.32 1310.14 716C1310.8 716 1311.46 716 1312.14 716C1313.44 717.421 1313.44 717.421 1314.89 719.395C1315.42 720.103 1315.94 720.811 1316.48 721.541C1317.03 722.291 1317.58 723.04 1318.14 723.812C1318.69 724.55 1319.23 725.288 1319.8 726.049C1321.97 728.998 1324.11 731.949 1326.14 735C1325.94 733.602 1325.94 733.602 1325.74 732.176C1324.88 725.99 1324.08 719.862 1323.7 713.625C1323.32 708.247 1322.5 703.052 1321.5 697.756C1320.55 692.597 1319.75 687.424 1319.01 682.23C1318.91 681.529 1318.81 680.828 1318.7 680.105C1318.5 678.646 1318.29 677.187 1318.08 675.728C1316.32 663.349 1314.36 651.085 1311.66 638.865C1310.49 633.438 1309.91 628.555 1310.14 623C1309.57 623.242 1309 623.485 1308.41 623.734C1284.5 633.617 1261.66 634.386 1236.14 634C1234.84 633.983 1233.55 633.966 1232.21 633.949C1200.46 632.564 1170.42 610.04 1148.36 589.047C1146.32 586.973 1146.32 586.973 1144.14 586C1144.14 585.34 1144.14 584.68 1144.14 584C1142.82 583.34 1141.5 582.68 1140.14 582C1140.14 581.34 1140.14 580.68 1140.14 580C1139.54 579.738 1138.94 579.477 1138.32 579.207C1136.01 577.928 1134.84 576.737 1133.2 574.688C1130.7 571.583 1127.97 568.81 1125.14 566C1118.36 558.886 1112.2 551.473 1106.34 543.598C1105.16 542.02 1103.95 540.463 1102.73 538.906C1102 537.947 1101.27 536.988 1100.52 536C1099.86 535.154 1099.21 534.309 1098.54 533.438C1096.97 530.698 1096.84 529.106 1097.14 526C1102.28 525.259 1107.42 524.523 1112.56 523.797C1115.72 523.35 1118.88 522.885 1122.03 522.391C1140.52 519.604 1159.48 519.702 1178.14 520C1179.01 520.007 1179.88 520.015 1180.77 520.022C1221.51 520.464 1255.7 533.328 1284.95 561.562C1290.14 566.922 1295 572.796 1299.14 579C1292.96 553.954 1292.96 553.954 1285.96 529.132C1284.7 524.931 1283.51 520.718 1282.37 516.483C1280.11 508.14 1277.51 499.959 1274.74 491.773C1270.99 480.678 1267.44 469.496 1265.14 458C1264.23 458.619 1264.23 458.619 1263.3 459.25C1246.37 470.402 1228.06 478.104 1208.14 482C1206.77 482.307 1206.77 482.307 1205.38 482.621C1172.99 489.179 1140.9 476.793 1113.14 461C1111.85 460.288 1111.85 460.288 1110.54 459.562C1092.72 449.514 1073.45 437.75 1059.14 423C1060.14 420 1060.14 420 1062.74 418.387C1076.75 411.513 1091.29 406.465 1106.13 401.66C1107.85 401.094 1109.57 400.505 1111.29 399.91C1128.51 394.161 1147.05 391.201 1165.14 390C1166.17 389.928 1167.21 389.856 1168.27 389.781C1199.37 388.742 1226.56 402.943 1250.14 422C1250.14 418.299 1248.86 415.538 1247.45 412.188C1245.35 407.083 1243.39 401.967 1241.58 396.75C1239.77 391.611 1237.71 386.707 1235.39 381.781C1234.01 378.708 1232.82 375.593 1231.64 372.438C1229.83 367.632 1227.75 363.13 1225.38 358.578C1223.99 355.689 1222.88 352.758 1221.77 349.75C1219.49 343.674 1216.73 338.013 1213.79 332.246C1208.14 321.123 1208.14 321.123 1208.14 317C1207.73 317.34 1207.31 317.681 1206.88 318.031C1180.88 338.483 1146.32 348.524 1113.53 345.688C1094.69 343.111 1076.8 335.786 1060.07 327.006C1058.24 326.05 1056.39 325.124 1054.54 324.203C1034.4 314.039 1015.61 300.208 998.141 286C998.238 284.207 998.238 284.207 999.141 282C1001.3 280.681 1003.27 279.677 1005.58 278.688C1006.25 278.39 1006.92 278.092 1007.61 277.785C1009.78 276.834 1011.96 275.912 1014.14 275C1014.84 274.707 1015.54 274.414 1016.26 274.112C1035.33 266.211 1054.98 260.367 1075.14 256C1076.21 255.764 1077.27 255.528 1078.37 255.285C1092.38 252.451 1106.91 252.728 1121.14 253C1122.7 253.025 1122.7 253.025 1124.3 253.051C1138.61 253.805 1151.78 260.252 1164.14 267C1165.25 267.602 1166.36 268.204 1167.5 268.824C1173.11 271.989 1178.23 275.434 1183.23 279.496C1185.26 281.16 1185.26 281.16 1188.2 282.812C1188.84 283.204 1189.48 283.596 1190.14 284C1190.14 284.66 1190.14 285.32 1190.14 286C1190.8 286 1191.46 286 1192.14 286C1191.63 285.196 1191.63 285.196 1191.11 284.375C1187.99 279.333 1185.19 274.197 1182.58 268.875C1177.55 258.637 1172.08 248.643 1166.58 238.653C1165.37 236.422 1164.22 234.179 1163.1 231.902C1160.51 226.554 1160.51 226.554 1156.06 222.875C1153.68 222.145 1153.68 222.145 1151.12 221.672C1123.63 215.468 1090.18 190.47 1073.84 167.805C1072.14 165 1072.14 165 1072.14 163C1071.48 163 1070.82 163 1070.14 163C1050.83 138.527 1044.59 100.456 1041.08 70.375C1040.96 69.3829 1040.96 69.3829 1040.84 68.3708C1039.27 54.1908 1038.97 39.9341 1039.01 25.6814C1039.02 23.1437 1039.01 20.6061 1039 18.0684C1039 16.4349 1039.01 14.8014 1039.01 13.168C1039 12.0446 1039 12.0446 1039 10.8985C1039.02 7.1407 1039.24 3.65357 1040.14 0ZM1266.14 410C1267.14 413 1267.14 413 1267.14 413L1266.14 410Z" fill="#070707"/>
</svg>
