<?xml version="1.0" encoding="iso-8859-1"?>
<!-- Generator: Adobe Illustrator 28.5.0, SVG Export Plug-In . SVG Version: 9.03 Build 54727)  -->
<svg version="1.1" id="Capa_1" xmlns="http://www.w3.org/2000/svg" xmlns:xlink="http://www.w3.org/1999/xlink" x="0px" y="0px"
	 viewBox="0 0 238.66 99.6" style="enable-background:new 0 0 238.66 99.6;" xml:space="preserve">
<g>
	<path style="fill:#002ABB;" d="M233.61,35.23c-0.47,0.96-1.42,1.59-2.49,1.63c-0.07,0-0.15,0.01-0.23,0.01
		c-1.41,0-2.7-0.79-3.34-2.05c-0.67-1.5-0.63-3.12-2.4-4.05c-1.09-0.61-2.33-0.94-3.58-0.94c-0.1,0-0.2,0-0.3,0.01
		c-2.36,0.05-5.36,0.75-5.81,4.63c-0.47,4.23,2.15,8.45,5.44,13.48c4.46,6.85,9.08,13.93,4.11,19.32
		c-2.78,2.73-6.52,4.27-10.41,4.27c-0.2,0-0.41-0.01-0.61-0.01c-5.82,0-10.64-2.27-12.94-6.03c-1.43-2.33-0.75-4.19,0.4-4.88
		c0.54-0.33,1.15-0.5,1.78-0.5c1,0,1.94,0.43,2.59,1.19c1.9,1.85,2.55,6.07,7.53,7c0.2,0.02,0.41,0.04,0.62,0.04
		c1.37,0,2.68-0.54,3.65-1.5c3.35-3.58-1.39-10.56-5.14-15.6c-0.56-0.74-1.06-1.42-1.48-2.02c-3.34-4.7-4.31-9.58-2.75-13.76
		c1.66-4.01,5.19-6.95,9.44-7.84c1.52-0.35,3.08-0.52,4.63-0.52c0.03,0,0.06,0,0.09,0c0.07,0,0.14,0,0.21,0
		c2.93,0,5.79,0.85,8.25,2.43c1.72,1.02,2.78,2.88,2.78,4.88c0,0.28-0.02,0.56-0.06,0.84L233.61,35.23L233.61,35.23z M202.23,27.72
		c-0.37-0.19-0.79-0.28-1.21-0.28c-0.04,0-0.09,0-0.13,0c-0.3-0.04-0.6-0.06-0.89-0.06c-1.46,0-2.87,0.5-4,1.42
		c-0.67,1.76-1.26,3.56-1.74,5.39c-0.54,2.03-1.21,4.06-1.97,6.03c-8.05,18.73-17.13,26.69-20.15,27.12
		c-1.57,0.22-2.13-0.34-2.47-1.07c-0.66-1.45,0.66-4.41,2.19-8.24c0.23-0.58,0.46-1.15,0.7-1.72c2.34-5.58,4.28-11.38,5.74-17.25
		c1.24-5.42,0.86-8.66-1.19-10.14c-1.05-0.81-2.35-1.26-3.69-1.26c-0.04,0-0.08,0-0.13,0c-0.12-0.01-0.24-0.02-0.36-0.02
		c-0.78,0-1.55,0.23-2.21,0.66c0.02,0.17,0.05,0.35,0.09,0.51c0.4,1.95,1.19,5.98-3.36,18.45c-0.15,0.42-0.4,1.05-0.71,1.8
		l-0.67,1.73c-0.6,1.54-1.37,3.57-2.03,5.77c-0.89,2.65-1.43,5.42-1.59,8.2c-0.01,0.17-0.01,0.34-0.01,0.51
		c0,0.53,0.04,1.07,0.11,1.59c0.06,0.35,0.14,0.69,0.24,1.02c0.58,2.02,2.43,3.41,4.54,3.41c0.2,0,0.4-0.01,0.6-0.04
		c0.37,0.03,0.74,0.05,1.11,0.05c0.84,0,1.68-0.08,2.51-0.24c4.1-1.47,7.79-3.95,10.7-7.19c2.42-2.69,4.67-5.59,6.67-8.62
		c2-3.03,2.03-4.13,2.08-4.1l-0.67,4.13c-3.5,17.43-8.24,29.03-23.13,35.07c-1.26,0.5-2.57,0.89-3.9,1.16
		c-0.71,0.07-1.39,0.31-1.99,0.69c0,0.03,0,0.07,0.01,0.1c0.87,1.17,2.19,1.93,3.64,2.1c0.62,0.13,1.26,0.19,1.89,0.19
		c0.03,0,0.06,0,0.09,0c6.2-0.42,12.11-2.85,16.81-6.91c10.21-9.99,12.33-20.9,14.21-30.57c0.38-1.94,0.76-3.94,1.22-5.93
		c0.74-3.19,3.29-18.79,3.02-23.5L202.23,27.72L202.23,27.72z M60.99,68.41c-4.06-3.93-4.02-9.71-2.21-16.27
		c3.66-12.62,8.04-25.08,13.01-37.23c1.29-2.99,2.44-6.06,3.4-9.15C74.5,5.27,73.67,5,72.82,5c-0.06,0-0.12,0-0.18,0
		c-0.03,0-0.07,0-0.1,0c-1.62,0-3.19,0.55-4.45,1.55c-1.65,1.24-4.01,6.75-4.79,8.57c-2.64,6.15-6.65,18.34-9.59,27.24l-1.57,4.75
		c-2.03,6.12-5.39,15.86-9.99,17.94c-0.59,0.27-1.23,0.42-1.88,0.43c-0.15,0.03-0.3,0.04-0.45,0.04c-0.74,0-1.43-0.32-1.91-0.89
		c-1.17-1.45-1.44-3.93-0.48-7.7c0.28-1.07,0.49-2.1,0.72-3.21l0.12-0.64c1.49-5.44,3.34-10.72,4.61-14.22
		c0.42-1.18,0.8-2.21,0.99-2.85c-0.16-0.04-0.33-0.06-0.5-0.06c-0.02,0-0.04,0-0.06,0c-0.01,0-0.01,0-0.02,0
		c-2.9,0-5.55,1.62-6.87,4.2c-2.3,5.15-8.3,17.78-14.27,23.57c-2.61,2.54-5.36,3.91-6.74,3.76c-1-0.04-1.91-0.59-2.4-1.45
		c-0.59-0.95-0.9-2.04-0.9-3.16c0-0.74,0.14-1.48,0.41-2.18c3.6-14.52,16.75-25.54,27.92-28.77c3.48-1.01,4.75-0.56,5.17-1.59
		c0.31-0.8-0.48-1.76-1.87-2.59c-1.44-0.67-3.02-1.01-4.61-1.01c-0.25,0-0.5,0.01-0.74,0.03c-2.76,0-6.66,0.59-12.76,3.94
		C19.44,34.1,8.71,43.69,5.8,55.76c-1.35,5.64-0.98,10,1.08,12.62c1.64,1.77,3.95,2.77,6.37,2.77c0.07,0,0.14,0,0.21,0
		c1.69-0.01,3.37-0.4,4.9-1.13c4.51-2.43,8.35-5.93,11.18-10.19c0.38-0.62,0.94-1.33,0.94-1.33c-0.07,0.67-0.11,1.36-0.11,2.04
		c0,1.81,0.25,3.62,0.74,5.36c0.88,2.88,3.46,4.92,6.47,5.1l0.32,0c5.16-0.29,8.36-3.87,12.24-10.75c0.1-0.16,0.38-0.68,0.38-0.68
		s0.13,9.7,7.9,12.59c3.62,1.34,6.1,0.3,6.69-0.91C65.7,70.05,62.85,70.24,60.99,68.41L60.99,68.41L60.99,68.41z M157.17,68.42
		c-2.07-2.18-3.34-4.52-2.19-10.98c0.43-2.45,1.92-7.68,2.57-9.73c1.13-3.56,2.27-6.75,3.02-8.85c0.45-1.24,0.81-2.23,0.99-2.85
		c-0.16-0.04-0.33-0.06-0.5-0.06c-0.02,0-0.04,0-0.06,0c-0.01,0-0.02,0-0.03,0c-2.89,0-5.54,1.62-6.86,4.2
		c-2.31,5.15-8.31,17.78-14.29,23.57c-2.61,2.54-4.84,3.82-6.65,3.82c-0.08,0.01-0.15,0.01-0.23,0.01c-0.82,0-1.59-0.39-2.08-1.04
		c-0.68-1.08-1.04-2.34-1.04-3.61c0-0.75,0.13-1.5,0.37-2.2c2.82-11.32,11.44-20.46,20.39-25.52c0.07-0.03,0.13-0.06,0.19-0.1
		c0.28-0.15,0.55-0.3,0.83-0.44c0.1-0.06,0.2-0.11,0.3-0.16c0.24-0.13,0.47-0.23,0.71-0.35c0.13-0.08,0.27-0.14,0.41-0.22
		c0.18-0.09,0.36-0.16,0.54-0.25c0.18-0.1,0.4-0.18,0.6-0.26c0.1-0.05,0.2-0.08,0.3-0.13c1.21-0.52,2.45-0.98,3.72-1.34
		c3.5-1.01,4.75-0.56,5.17-1.59c0.32-0.8-0.47-1.76-1.88-2.59c-1.44-0.67-3-1.01-4.59-1.01c-0.25,0-0.5,0.01-0.75,0.03
		c-2.76,0-6.66,0.59-12.75,3.94c-1.82,1.02-3.56,2.22-5.17,3.55c-1.82,1.44-3.55,3.02-5.14,4.71c-1.79,0.95-3.76,1.52-5.78,1.66
		c-0.02,0-0.05,0-0.07,0c-0.29,0-0.57-0.02-0.86-0.06c-1.74-0.26-3.04-1.76-3.04-3.52c0-0.04,0-0.09,0-0.13c0-0.02,0-0.03,0-0.05
		c0-0.04,0.01-0.08,0.02-0.12c0.12-0.37,0.32-0.87,0.57-1.51c0.89-2.18,2.37-5.84,1.53-7.63c-0.63-0.55-1.44-0.85-2.28-0.85
		c-0.12,0-0.25,0.01-0.37,0.02c-0.36,0-0.73,0.04-1.08,0.11c-2.21,0.45-4.15,1.78-5.38,3.67c-0.81,1.39-1.24,2.97-1.24,4.59
		c0,0.87,0.12,1.73,0.37,2.56c0,0.03,0.01,0.07,0.01,0.11c0,0.03,0,0.07-0.01,0.1c-0.71,3.66-1.97,7.21-3.7,10.51l-0.79,1.72
		c-0.39,0.83-0.79,1.7-1.2,2.61c-2.46,5.58-8.25,15.3-12.02,15.44l-0.08,0c-0.48-0.01-0.96-0.13-1.4-0.33
		c-4.29-2.04-0.15-11.92,4.46-24.34l0.62-1.65c0.48-1.3,0.89-2.38,1.15-3.17c0.37-0.86,0.57-1.79,0.57-2.73
		c0-0.65-0.09-1.3-0.28-1.93c-0.21-0.44-0.61-0.76-1.09-0.87c-0.46-0.14-0.94-0.21-1.42-0.23c-1.61,0-2.26,0.44-3.85,4.05
		l-0.08,0.16c-0.44,1.02-0.93,2.12-1.52,3.32C89.53,51.59,83.95,59.76,78.7,64.13c-0.78,0.79-1.8,1.3-2.89,1.44
		c-0.07,0-0.15,0-0.22,0c-0.72-0.07-1.36-0.51-1.68-1.16c-0.99-1.78,0.71-4.82,5.21-15.12c0.56-1.27,1.16-2.62,1.8-4.1l0.69-1.6
		c2.07-4.95,4.36-11.81,0.05-14.34c-0.98-0.55-2.07-0.83-3.19-0.83c-0.04,0-0.08,0-0.12,0c-0.1-0.01-0.21-0.01-0.31-0.01
		c-1.08,0-2.14,0.35-3,1c-0.07,0.07-0.12,0.15-0.14,0.25c0.48,6.12-2.06,11.58-4.75,17.39c-0.69,1.47-1.35,2.91-1.95,4.33
		c-0.56,1.3-1.04,2.51-1.47,3.69c-0.79,2.21-1.35,4.51-1.66,6.84C65.02,62.33,65,62.76,65,63.19c0,0.25,0.01,0.5,0.02,0.74
		c0.06,0.88,0.25,1.75,0.56,2.57c0.71,2.29,2.62,4.01,4.97,4.48c0.33,0.04,0.66,0.06,0.99,0.06c3.04-0.15,5.96-1.3,8.28-3.27
		l0.31-0.28c2.78-2.65,5.36-5.55,7.65-8.63l1.94-2.97c-0.36,1.06-0.65,2.17-0.85,3.28c-0.81,3.5-0.42,7.31,1.08,9.29
		c1.51,1.76,3.71,2.78,6.03,2.78c0.18,0,0.37-0.01,0.55-0.02c2.04-0.02,4.07-0.42,5.97-1.18c4.18-1.59,8.56-6.14,12.69-13.14
		c2.18-4.04,4.06-8.28,5.59-12.59c0.05-0.13,0.15-0.23,0.27-0.29c0.06-0.02,0.13-0.04,0.2-0.04c0.07,0,0.14,0.02,0.2,0.06
		c0.78,0.33,1.62,0.5,2.47,0.5c0.02,0,0.05,0,0.07,0c2.03-0.1,4.01-0.66,5.79-1.65c-2.94,3.81-5.08,8.2-6.27,12.86
		c-1.36,5.64-0.98,10,1.08,12.62c1.52,1.79,3.75,2.83,6.1,2.83c0.04,0,0.08,0,0.12,0c0.04,0,0.07,0,0.11,0
		c1.82,0,3.63-0.39,5.28-1.15c4.38-2.48,8.15-5.94,10.97-10.1c0.35-0.56,0.69-1.16,0.69-1.16s-0.98,10.45,6.58,13.37
		c3.54,1.37,6.08,0.3,6.7-0.91c0.62-1.21-2.22-0.98-3.96-2.83L157.17,68.42L157.17,68.42z M157.17,68.42L157.17,68.42L157.17,68.42
		L157.17,68.42z"/>
</g>
</svg>
