<?xml version="1.0"?>
<svg width="1962" height="470" xmlns="http://www.w3.org/2000/svg">
<title>Garnier logo</title>
<g fill="#21372b">
 <path d="m 235,81 c 53.157,0 100.024,26.758 127.699,67.456 l 11.553,21.146 h -52.746 l -9.734,-11.694 C 292.124,138.434 264.981,126.389 235,126.389 c -59.962,0 -108.571,48.179 -108.571,107.611 0,59.432 48.609,107.611 108.571,107.611 44.972,0 83.557,-27.101 100.039,-65.724 l 6.009,-19.185 h -168.03 v -43.55 h 214.387 l 0.8,5.205 C 388.731,223.5 389,228.719 389,234 389,318.5 320.052,387 235,387 149.948,387 81,318.5 81,234 81,149.5 149.948,81 235,81 Z" />
 <path d="m 517.5,147.361 -38.217,85.083 h 76.435 z M 498.755,84 h 37.49 v 0 L 671,384 H 623.794 L 575.265,275.961 H 459.7353 L 411.2062,384 H 364 l 68.0265,-151.445 v -0.111 h 0.05 z" />
 <path d="m 736.958,127.517 v 104.927 h 100.117 c 6.259,-0.612 10.605,-1.605 16.481,-4.125 18.902,-7.964 32.165,-26.608 32.165,-48.338 0,-21.73 -13.263,-40.375 -32.165,-48.339 -6.258,-2.646 -10.987,-4.53 -18.776,-4.506 z M 693,84 h 150.961 v 1.096 l 8.501,0.854 c 43.877,8.95 76.884,47.648 76.884,94.031 0,34.786 -18.566,65.251 -46.36,82.085 l -6.242,3.089 h 0.661 L 947,384 H 888.923 L 825.656,275.961 H 736.958 V 384 H 693.336 V 275.961 H 693 v -43.517 h 0.336 V 127.517 H 693 Z" />
 <rect x="1277" y="84" width="44" height="300" />
 <path d="m 972,84.683974 h 18.201 18.446 l 7.031,8.842626 v 4.8e-4 L 1179.3219,299.327 v 72.741 L 1015.678,166.2686 V 384 H 972 V 111.3383 l 43.678,54.9295 v 0 L 972,111.3383 Z M 1179.3221,84 H 1223 V 354.256 384 h -34.1902 l -9.4877,-11.932 v -72.742 z" />
 <path d="m 1750.96,127.517 v 104.927 h 100.12 c 6.25,-0.612 10.6,-1.605 16.48,-4.125 18.9,-7.964 32.16,-26.608 32.16,-48.338 0,-21.73 -13.26,-40.375 -32.16,-48.339 -6.26,-2.646 -10.99,-4.53 -18.78,-4.506 z M 1707,84 h 150.96 v 1.096 l 8.5,0.854 c 43.88,8.95 76.89,47.648 76.89,94.031 0,34.786 -18.57,65.251 -46.36,82.085 l -6.25,3.089 h 0.67 L 1961,384 h -58.08 l -63.26,-108.039 h -88.7 V 384 h -43.62 V 275.961 H 1707 v -43.517 h 0.34 V 127.517 H 1707 Z" />
 <path d="m 1513,387 c 53.157,0 100.024,-26.758 127.699,-67.4563 l 11.553,-21.1453 h -52.746 l -9.734,11.6939 c -19.648,19.4738 -46.791,31.5187 -76.772,31.5187 -59.9624,0 -108.5714,-48.1792 -108.5714,-107.611 0,-59.432 48.609,-107.611 108.5714,-107.611 44.972,0 83.557,27.101 100.039,65.724 l 6.009,19.185 h -168.0297 v 43.55 h 214.3867 l 0.8,-5.205 C 1666.731,244.5 1667,239.281 1667,234 c 0,-84.5 -68.948,-153 -154,-153 -85.0518,0 -154,68.5 -154,153 0,84.4996 68.9482,153 154,153 z" />
</g>
</svg>