<?xml version="1.0" encoding="UTF-8"?>
<svg id="Layer_2" data-name="Layer 2" xmlns="http://www.w3.org/2000/svg" viewBox="0 0 1444.37 182.75" fill="#6b46c1">
  <g id="Layer_1-2" data-name="Layer 1">
    <g>
      <g>
        <path d="M1304.98,182.32c-3.58-3.67-5.99-7.2-4.43-11.1,1.35-3.36,5.66-7.17,10.33-7.29l56.42-1.39c24.86-2.76,49.94-26.19,55.57-50.73,8.78-38.22-10.97-72.96-49-86.01-5.19-.6-10.29-1.11-15.13-3.6l-52.99-.08c-2.51,0-5.47-4.87-5.71-7.19-.3-2.99,1.96-6.4,4.63-9.43l70,.44c31.39,9.16,54.85,30.28,65.45,61.32l2.68,9.68c2.93,10.6.82,22.01.68,32.89-2.17,3.86-2.81,7.45-3.31,11.47-10.39,27.72-30.87,49.29-58.82,58.04-3.47-.58-6.39.12-8.4,2.95l-67.99.03Z"/>
        <path d="M1319.77,156.64c-3.56,7.08-14.73,4.94-15.76,3.69-1.1-1.34-3.67-4.63-3.67-6.58V35.47c-.01-5.51,6.88-11.47,11.72-10.62,2.46.43,5.59,3.92,7.7,5.96v125.84Z"/>
      </g>
      <path d="M1180.26,125.82l-23.56-31.16-13.69-19.21-25.86-33.73-.16,136.53-4.06,4.09-73.41-.14c-3.18,0-5.19-6.56-6.26-9.03l-2.32-5.32-8.72-20.47-10.5-23.36c-.42,4.84-.62,12.82-5.93,12.84l-63.25.22-6.3-8.17-12.34,27.62-8.03,19.6c-1.76,4.3-4.19,6.32-7.92,6.38-4.09.06-8.7.18-9.65-5.11-.56-3.14-.27-8.34.4-11.27l26.63-61.83,20.01-47.77,21.32-51.41c1.04-2.5,5.35-4.67,7.51-5.09,2.34-.45,7.21,2.24,8.39,5l22.62,52.79,27.01,63.87,17.43,41.43,48.4.07V10.46s4.64-5.49,4.64-5.49c.95-1.12,3.93-3.09,5.35-2.76,1.59.37,3.94,1.95,6.3,3.25l29.39,39.16,75.25,101,.08-137.95,9.59-5.97c2.97,2.29,9.38,5.83,9.38,10.17l.03,163.31-4.28,5.85c-1.57,2.15-8.54,2.19-10.7.68-2.71-1.89-6.7-6.52-8.75-9.43l-6.26-8.91-18.79-25.12-9.02-12.41ZM1010.31,121.49c-.54-5.93-1.42-6.49-2.79-9.82l-6.57-15.96-8.89-19.84-12.93-31.93-3.1-9.81-10.77,24.53-3.66,8.36-22.68,54.93,9.59-3.92,53.63.08,8.16,3.38Z"/>
      <path d="M274.93,100.38l-98.98.03-6.46-8.6c2.05-4.64,3.99-8.22,8.04-10.42l97.43.03c2.44,2.39,6.92,6.01,6.88,9.37-.04,3.6-4.38,7.04-6.91,9.59Z"/>
      <path d="M277.26,21.98l-103.75.13-3.53-8.32,4.08-8.39,103.92.15c3.31,0,4.29,5.54,4.49,7.83.21,2.48-1.11,8.6-5.2,8.6Z"/>
      <path d="M477.97,62.23c-2.41,2.22-3.63,6.12-5.16,9.44l-20.68,44.88-6.59,15.56-22.73,48.44c-1.05,2.23-6.84,2.18-9.47,1.82-2.47-.34-5.18-3.42-6.67-6.77l-21.1-47.67-13.37-29.16-6.14-15.17c-3.06-7.57-6.84-14.59-10.98-21.82l-.18,113.33c-1.73,1.62-2.54,3.11-3.06,5.64-4.99,2.89-12.93,3-16.09-3.12V10.11c3.07-5.87,8.61-5.42,15.38-4.12l12.04,25.41,3.35,8.8,27.37,60.6,17.02,38.54c1.45,3.29,3.06,6.24,6.21,9.46l42.85-95.82,21.94-46.92c6.2-1.21,11.83-1.91,15.09,3.42v168.72c-3.36,5.42-10.54,5.18-15.39,2.84-.98-2.39-1.89-3.9-3.49-5.79l-.13-113.05Z"/>
      <path d="M664.5,118.04c-2.31-4.96-8.3-10-12.31-13.79-2.93-.8-4.72-1.6-6.86-3.84l-63.36.05-.25,56.64c-.02,3.65-6.96,5.23-8.84,4.18-2.55-.03-5.06-.07-6.04-.96-1.13-1.02-2.95-4.23-2.95-6l-.02-120.04c0-5.21,3.96-7.84,7.58-8.84,2.86-.79,10.09,1.18,10.12,4.92l.41,51.07,57.56-.14c8.65-5.04,14.9-8.2,18.96-17.14,1.13-7.17,2.67-16.37-.47-23.47-4.15-9.41-12.79-15.99-23.54-17.42-21.72-2.89-44.24.27-66.86-1.46-5.07-4.36-4.37-12.03.14-16.37l77.95.22c16.72,7.14,27.61,17.83,32.21,35.05,3.48,20.48-.56,33.62-14.64,48.77,10.79,7.59,18.03,17.68,21.78,29.6,3.16,10.01,3.5,17.44-.15,27.82-3.21,9.14-8.89,20.15-17.29,25.44l-10.75,6.75c-2.79.18-5.07,1.02-7.22,3.21l-81.21.09c-3.25-2.02-5.07-6.87-4.08-10.18.29-5.58,4.02-6.15,9.14-8.92l72.01-.19c16.24-5.1,26.22-22.34,21.87-38.81l-2.89-6.21Z"/>
      <path d="M817.45,110.76l21.56,30.47,18.46,25.59c1.68,2.33,2.84,5.75,2.96,8.34.11,2.26-2.38,6.78-5.06,6.85l-10.47.27-41.33-58.5-9.93-14.17-23.91-.19c-2.03-2.76-3.27-5.16-6.62-7.26l-.23,75.43c-.01,4.7-6.9,4.91-9.72,5.01-4.64.15-5.3-3.02-9.06-7.46l.02-163.59,3.81-5.15c.95-1.28,10.21-2.03,12.8.6,1.64,1.67,2.42,4.14,3.09,7.23l6.06-8.82,53.41.21c17.28,5.97,29.71,18.07,36.82,34.48-.45,3.23.54,5.84,2.76,8.24-.07,5.39.9,12.68-.59,17.5l-2.82,9.11c-4.56,14.75-17.17,25.15-31.78,31.42l-10.24,4.39ZM841.11,45.48c-3.83-11.86-14.95-18.14-27.57-22.89l-43.43-.45-7.02-7.08v84.93c6.39-7.09,11.76-11.27,20.36-9.6l36.84-.27c19.1-9.39,27.08-25.24,20.82-44.63Z"/>
      <g>
        <path d="M277.37,182.2l-164.36.09c-2.87-2.54-5.93-3.15-8.97-3.61-8.8-4.18-14.25-9.94-18.41-17.73l-39.37-55.1c-1.61-2.26-1.83-8.8.15-10.89,8.22-8.64,20.86-2.13,28.21-5.4,5.75-2.56,12.95-5.81,15.74-10.32l6.56-10.63.15-21.75c-4.48-13.43-14.77-20.05-28.57-24.28l-62.74-.38C2.09,20.42-.87,15.72.24,11.77S5.27,3.59,10.59,3.55l55.65-.46c3.16,2.12,6.42,2.82,10.38,2.15,23.55,6.02,41.65,27.51,40.19,51.45l-1.01,16.7c-1.77,2.19-2.82,5.21-3.22,7.84l-6.27,8.04c-15.12,19.39-36.46,16.58-31.43,23.78l32.16,46.04c3.62.95,5.68,1.95,8.55,3.99l158.98.24c5.01,0,8.05,5.56,8.29,8.48.25,3.11-.66,10.4-5.49,10.4Z"/>
        <path d="M19.01,175.15c-3.21,5-4.12,8.26-9.3,7.03-2.52,1.19-9.55-.38-9.55-4.59L.08,31.47c3.35-5.58,10.12-6.23,15.32-3.69l3.59,5.69v141.69Z"/>
      </g>
    </g>
  </g>
</svg>